<?xml version="1.0" encoding="utf-8"?>
<!-- Generator: Adobe Illustrator 15.1.0, SVG Export Plug-In . SVG Version: 6.00 Build 0)  -->
<!DOCTYPE svg PUBLIC "-//W3C//DTD SVG 1.1//EN" "http://www.w3.org/Graphics/SVG/1.1/DTD/svg11.dtd">
<svg version="1.1" id="Layer_1" xmlns="http://www.w3.org/2000/svg" xmlns:xlink="http://www.w3.org/1999/xlink" x="0px" y="0px" width="792px" height="592.395px" viewBox="0 0 792 592.395" enable-background="new 0 0 792 592.395" xml:space="preserve">
    <g id="logo">
        <g>
            <defs>
                <filter id="Adobe_OpacityMaskFilter" filterUnits="userSpaceOnUse" x="124.5" y="111.697" width="547" height="360">
                    <feFlood style="flood-color:white;flood-opacity:1" result="back" />
                    <feBlend in="SourceGraphic" in2="back" mode="normal" />
                </filter>
            </defs>
            <g mask="url(#SVGID_1_)">
                <image overflow="visible" width="547" height="360" xlink:href="img/50875099.png" transform="matrix(1 0 0 1 124.5 111.6973)">
                </image>
            </g>
        </g>
        <g>
            <g>
                <path fill="#58595B" d="M209.111,351.473h22.12l-4.595,27.479h-7.251l-0.438-5.509c-2.848,4.335-7.38,6.499-13.604,6.499
			c-4.56,0-8.282-0.978-11.165-2.936c-2.878-1.96-5.106-4.49-6.69-7.585c-1.58-3.104-2.374-6.746-2.374-10.934
			c0-8.428,2.394-15.675,7.167-21.758c4.776-6.072,11.146-9.109,19.107-9.109c11.244,0,18.286,5.374,21.124,16.132l-13.774,2.237
			c-0.959-4.457-3.469-6.683-7.531-6.683c-3.676,0-6.312,2.276-7.9,6.831c-1.594,4.561-2.394,9.013-2.394,13.377
			c0,5.83,2.313,8.741,6.928,8.741c3.611,0,6.174-2.063,7.698-6.206h-8.229L209.111,351.473z" />
                <path fill="#58595B" d="M261.549,368.703h-13.426l-4.686,10.25h-12.429l23.217-50.153h15.739l7.782,50.153H262.95L261.549,368.703
			z M260.655,358.34l-1.994-14.517l-6.609,14.517H260.655z" />
                <path fill="#58595B" d="M327.791,340.45l-12.893,3.268c-0.368-1.494-1.284-2.666-2.759-3.527
			c-1.466-0.855-3.084-1.283-4.848-1.283c-3.304,0-4.96,1.099-4.96,3.305c0,0.711,0.232,1.325,0.7,1.836
			c0.463,0.518,1.775,1.155,3.927,1.917l7.97,2.843c2.08,0.74,4.013,1.819,5.807,3.258c1.789,1.43,3.078,2.997,3.865,4.698
			c0.781,1.699,1.177,3.519,1.177,5.454c0,5.063-1.992,9.25-5.974,12.554c-3.979,3.304-9.29,4.961-15.93,4.961
			c-5.681,0-10.639-1.155-14.861-3.457c-4.227-2.304-7.175-5.817-8.838-10.544l14.479-2.829c1.247,3.55,4.332,5.328,9.259,5.328
			c2.054,0,3.543-0.378,4.462-1.122c0.919-0.749,1.377-1.601,1.377-2.556c0-0.612-0.175-1.148-0.53-1.612
			c-0.356-0.467-0.738-0.811-1.142-1.016c-0.403-0.205-2.306-0.935-5.709-2.191c-4.604-1.697-7.828-3.037-9.68-4.033
			c-1.852-0.991-3.396-2.467-4.632-4.425c-1.238-1.959-1.856-4.265-1.856-6.9c0-4.582,1.682-8.453,5.05-11.627
			c3.369-3.169,8.517-4.756,15.452-4.756c5.291,0,9.822,1.117,13.596,3.346C324.074,333.564,326.567,336.602,327.791,340.45z" />
                <path fill="#58595B" d="M356.841,340.189l-6.508,38.764h-14.565l6.502-38.764h-10.729l1.949-11.534h36.32l-1.91,11.534H356.841z" />
                <path fill="#58595B" d="M403.57,357.935l5.431,21.019h-14.842l-4.414-19.071h-5.935l-3.201,19.071h-14.305l8.377-50.153h21.896
			c5.956,0,10.364,1.303,13.229,3.914c2.867,2.606,4.299,6.154,4.299,10.635C414.105,350.524,410.596,355.385,403.57,357.935z
			 M385.563,349.449h5.642c5.421,0,8.133-1.837,8.133-5.509c0-3.09-2.273-4.631-6.825-4.631h-5.246L385.563,349.449z" />
                <path fill="#58595B" d="M439.059,380.241c-5.933,0-11.073-1.94-15.433-5.824c-4.36-3.88-6.543-9.446-6.543-16.7
			c0-8.401,2.437-15.535,7.314-21.401c4.873-5.867,11.245-8.805,19.104-8.805c6.297,0,11.465,2.058,15.508,6.156
			c4.042,4.104,6.063,9.474,6.063,16.112c0,8.478-2.402,15.671-7.203,21.59C453.071,377.283,446.797,380.241,439.059,380.241z
			 M439.168,368.559c2.594,0,4.566-1.099,5.916-3.289c1.347-2.192,2.41-5.407,3.191-9.651c0.786-4.233,1.183-7.101,1.183-8.593
			c0-2.573-0.597-4.52-1.785-5.845c-1.188-1.32-2.761-1.981-4.722-1.981c-3.748,0-6.38,2.604-7.897,7.826
			c-1.521,5.216-2.277,9.835-2.277,13.852C432.775,365.995,434.903,368.559,439.168,368.559z" />
                <path fill="#58595B" d="M493.82,340.189l-6.498,38.764h-14.567l6.5-38.764h-10.729l1.947-11.534h36.319l-1.909,11.534H493.82z" />
                <path fill="#58595B" d="M542.198,367.417l-1.945,11.535h-36.966l8.379-50.153h36.04l-1.833,10.985h-21.514l-1.307,7.862h18.083
			l-1.837,10.88h-18.05l-1.47,8.891H542.198z" />
                <path fill="#58595B" d="M570.008,358.238l-7.606,8.487l-2.043,12.228h-13.972l8.379-50.153h13.968l-3.849,23.041
			c0.812-1.907,2.019-3.797,3.624-5.667c1.602-1.87,4.197-4.974,7.785-9.32l7.146-8.054h14.315l-16.87,19.013L570.008,358.238z" />
                <path fill="#F6921E" d="M582.402,352.664l8.077,26.289h-14.799l-4.156-15.862L582.402,352.664z" />
            </g>
        </g>
        <g>
            <polygon fill="#F6921E" points="391.43,296.347 380.777,285.697 375.445,291.037 391.433,307.024 408.615,289.842 403.277,284.505 
			" />
            <polygon fill="#F6921E" points="337.39,252.98 342.727,247.644 332.073,236.994 343.922,225.147 338.581,219.806 321.398,236.989 	
		" />
            <polygon fill="#F6921E" points="391.43,296.347 380.777,285.697 375.445,291.037 391.433,307.024 408.615,289.842 403.277,284.505 
			" />
            <polygon fill="#F6921E" points="450.793,236.989 438.944,248.835 444.281,254.174 461.474,236.991 445.475,221.001 440.14,226.336 
			" />
            <polygon fill="#F6921E" points="379.591,189.474 391.437,177.633 402.088,188.285 407.424,182.946 391.437,166.957 
		374.249,184.137 	" />
            <path fill="#58595B" d="M417.963,216.152l12.143-12.14l-6.096-6.095l-12.142,12.14c-11.952-9.22-28.714-9.221-40.666-0.001
	l-12.442-12.443l-6.098,6.095l12.444,12.445c-9.221,11.954-9.219,28.714,0,40.666l-12.142,12.14l6.095,6.097l12.144-12.144
	c11.954,9.217,28.711,9.218,40.664,0.001l11.837,11.835l6.099-6.095l-11.839-11.838
	C427.178,244.861,427.181,228.104,417.963,216.152z" />
        </g>
        <g>
            <path fill="#58595B" d="M265.582,408.988h-6.262l-0.813,4.297h7.048l-0.629,3.223h-10.821l3.354-17.659h10.454l-0.629,3.223h-6.655
		l-0.733,3.746h6.314L265.582,408.988z" />
            <path fill="#58595B" d="M269.985,416.507l1.886-9.93h-1.651l0.525-2.883h1.676l0.105-0.655c0.289-1.546,0.891-3.146,2.175-4.219
		c1.048-0.864,2.41-1.205,3.668-1.205c0.891,0,1.572,0.131,1.992,0.313l-0.655,2.988c-0.341-0.131-0.734-0.209-1.206-0.209
		c-1.231,0-1.991,1.073-2.228,2.355l-0.104,0.631h2.515l-0.55,2.883h-2.489l-1.887,9.93L269.985,416.507L269.985,416.507z" />
            <path fill="#58595B" d="M280.152,416.507l2.437-12.813h3.747l-2.41,12.813H280.152z M284.92,402.017
		c-1.101,0-1.912-0.784-1.912-1.965c0-1.36,1.074-2.278,2.305-2.278c1.179,0,2.018,0.761,2.018,1.965
		c0,1.439-1.101,2.278-2.385,2.278H284.92z" />
            <path fill="#58595B" d="M298.468,416.114c-0.813,0.394-2.123,0.682-3.642,0.682c-3.171,0-5.398-1.938-5.398-5.267
		c0-4.561,3.485-8.123,8.358-8.123c1.101,0,2.043,0.211,2.62,0.444l-0.943,2.885c-0.445-0.186-0.969-0.315-1.729-0.315
		c-2.672,0-4.35,2.279-4.35,4.689c0,1.781,1.127,2.674,2.515,2.674c1.101,0,1.887-0.263,2.542-0.525L298.468,416.114z" />
            <path fill="#58595B" d="M302.374,416.507l2.437-12.813h3.747l-2.41,12.813H302.374z M307.143,402.017
		c-1.101,0-1.913-0.784-1.913-1.965c0-1.36,1.074-2.278,2.306-2.278c1.18,0,2.018,0.761,2.018,1.965
		c0,1.439-1.101,2.278-2.385,2.278H307.143z" />
            <path fill="#58595B" d="M322,415.774c-1.493,0.76-3.354,1.021-4.769,1.021c-3.668,0-5.555-2.069-5.555-5.424
		c0-3.904,2.83-7.966,7.467-7.966c2.594,0,4.454,1.469,4.454,3.853c0,3.248-3.17,4.429-8.306,4.297c0,0.367,0.131,0.943,0.393,1.311
		c0.498,0.654,1.362,0.995,2.463,0.995c1.389,0,2.568-0.313,3.589-0.813L322,415.774z M320.061,407.232
		c0-0.63-0.524-1.074-1.389-1.074c-1.756,0-2.751,1.468-3.014,2.646c2.935,0.027,4.402-0.367,4.402-1.545L320.061,407.232
		L320.061,407.232z" />
            <path fill="#58595B" d="M326.377,416.507l1.624-8.646c0.315-1.625,0.525-3.015,0.682-4.166h3.328l-0.236,2.121h0.053
		c1.205-1.649,2.804-2.41,4.48-2.41c2.096,0,3.301,1.284,3.301,3.511c0,0.578-0.104,1.52-0.209,2.148l-1.415,7.441h-3.773
		l1.336-7.102c0.079-0.443,0.131-0.942,0.131-1.415c0-0.916-0.315-1.545-1.284-1.545c-1.231,0-2.646,1.545-3.197,4.375l-1.048,5.687
		H326.377z" />
            <path fill="#58595B" d="M352.501,416.114c-0.812,0.394-2.122,0.682-3.642,0.682c-3.17,0-5.397-1.938-5.397-5.267
		c0-4.561,3.485-8.123,8.358-8.123c1.101,0,2.044,0.211,2.62,0.444l-0.942,2.885c-0.445-0.186-0.97-0.315-1.729-0.315
		c-2.672,0-4.35,2.279-4.35,4.689c0,1.781,1.126,2.674,2.516,2.674c1.1,0,1.886-0.263,2.542-0.525L352.501,416.114z" />
            <path fill="#58595B" d="M356.407,416.507l2.437-12.813h3.748l-2.411,12.813H356.407z M361.176,402.017
		c-1.101,0-1.913-0.784-1.913-1.965c0-1.36,1.074-2.278,2.306-2.278c1.179,0,2.018,0.761,2.018,1.965
		c0,1.439-1.101,2.278-2.384,2.278H361.176z" />
            <path fill="#58595B" d="M373.78,416.507c0.026-0.732,0.104-1.624,0.157-2.541h-0.053c-1.205,2.121-2.855,2.829-4.35,2.829
		c-2.305,0-3.877-1.782-3.877-4.454c0-4.323,2.881-8.936,9.171-8.936c1.545,0,3.169,0.289,4.218,0.629l-1.284,6.707
		c-0.314,1.651-0.577,4.167-0.524,5.766H373.78z M374.801,406.368c-0.288-0.053-0.603-0.106-0.995-0.106
		c-2.437,0-4.219,2.987-4.219,5.372c0,1.258,0.499,2.123,1.546,2.123c1.126,0,2.568-1.284,3.144-4.429L374.801,406.368z" />
            <path fill="#58595B" d="M399.303,415.774c-1.492,0.76-3.354,1.021-4.769,1.021c-3.669,0-5.555-2.069-5.555-5.424
		c0-3.904,2.83-7.966,7.468-7.966c2.594,0,4.454,1.469,4.454,3.853c0,3.248-3.17,4.429-8.305,4.297c0,0.367,0.131,0.943,0.393,1.311
		c0.498,0.654,1.362,0.995,2.462,0.995c1.391,0,2.567-0.313,3.591-0.813L399.303,415.774z M397.364,407.232
		c0-0.63-0.523-1.074-1.39-1.074c-1.755,0-2.75,1.468-3.013,2.646c2.935,0.027,4.402-0.367,4.402-1.545L397.364,407.232
		L397.364,407.232z" />
            <path fill="#58595B" d="M403.68,416.507l1.625-8.646c0.314-1.625,0.523-3.015,0.682-4.166h3.328l-0.235,2.121h0.052
		c1.205-1.649,2.805-2.41,4.48-2.41c2.097,0,3.302,1.284,3.302,3.511c0,0.578-0.104,1.52-0.209,2.148l-1.416,7.441h-3.772
		l1.336-7.102c0.078-0.443,0.131-0.942,0.131-1.415c0-0.916-0.313-1.545-1.283-1.545c-1.231,0-2.646,1.545-3.196,4.375l-1.048,5.687
		H403.68z" />
            <path fill="#58595B" d="M436.592,416.114c-0.813,0.394-2.122,0.682-3.642,0.682c-3.171,0-5.397-1.938-5.397-5.267
		c0-4.561,3.483-8.123,8.357-8.123c1.102,0,2.044,0.211,2.62,0.444l-0.942,2.885c-0.446-0.186-0.97-0.315-1.729-0.315
		c-2.673,0-4.351,2.279-4.351,4.689c0,1.781,1.127,2.674,2.518,2.674c1.1,0,1.886-0.263,2.541-0.525L436.592,416.114z" />
            <path fill="#58595B" d="M446.078,416.795c-3.275,0-5.45-2.122-5.45-5.292c0-4.429,3.092-8.098,7.651-8.098
		c3.459,0,5.447,2.358,5.447,5.293c0,4.665-3.222,8.097-7.624,8.097H446.078L446.078,416.795z M446.575,413.914
		c2.045,0,3.223-3.014,3.223-5.188c0-1.206-0.521-2.436-2.017-2.436c-2.175,0-3.275,3.144-3.275,5.135
		c0,1.494,0.76,2.489,2.044,2.489H446.575L446.575,413.914z" />
            <path fill="#58595B" d="M466.387,416.114c-0.813,0.394-2.122,0.682-3.643,0.682c-3.17,0-5.397-1.938-5.397-5.267
		c0-4.561,3.484-8.123,8.358-8.123c1.101,0,2.044,0.211,2.62,0.444l-0.943,2.885c-0.446-0.186-0.97-0.315-1.729-0.315
		c-2.675,0-4.352,2.279-4.352,4.689c0,1.781,1.127,2.674,2.517,2.674c1.101,0,1.887-0.263,2.541-0.525L466.387,416.114z" />
            <path fill="#58595B" d="M470.292,416.507l2.438-12.813h3.745l-2.409,12.813H470.292z M475.06,402.017
		c-1.1,0-1.911-0.784-1.911-1.965c0-1.36,1.073-2.278,2.306-2.278c1.179,0,2.018,0.761,2.018,1.965c0,1.439-1.101,2.278-2.385,2.278
		H475.06z" />
            <path fill="#58595B" d="M479.201,416.507l1.625-8.646c0.313-1.625,0.522-3.015,0.681-4.166h3.328l-0.236,2.121h0.054
		c1.205-1.649,2.804-2.41,4.479-2.41c2.096,0,3.301,1.284,3.301,3.511c0,0.578-0.104,1.52-0.209,2.148l-1.415,7.441h-3.772
		l1.337-7.102c0.078-0.443,0.131-0.942,0.131-1.415c0-0.916-0.313-1.545-1.284-1.545c-1.23,0-2.646,1.545-3.195,4.375l-1.049,5.687
		H479.201z" />
            <path fill="#58595B" d="M504.382,416.507c0.027-0.732,0.104-1.624,0.156-2.541h-0.052c-1.204,2.121-2.855,2.829-4.35,2.829
		c-2.307,0-3.878-1.782-3.878-4.454c0-4.323,2.882-8.936,9.171-8.936c1.546,0,3.169,0.289,4.22,0.629l-1.284,6.707
		c-0.314,1.651-0.577,4.167-0.524,5.766H504.382z M505.404,406.368c-0.288-0.053-0.604-0.106-0.995-0.106
		c-2.438,0-4.219,2.987-4.219,5.372c0,1.258,0.496,2.123,1.545,2.123c1.127,0,2.567-1.284,3.145-4.429L505.404,406.368z" />
            <path fill="#58595B" d="M512.873,413.154c0.733,0.365,2.123,0.891,3.354,0.891c1.049,0,1.6-0.523,1.6-1.153
		c0-0.628-0.42-1.073-1.6-1.649c-1.469-0.734-2.698-1.809-2.698-3.406c0-2.672,2.332-4.429,5.634-4.429
		c1.494,0,2.672,0.313,3.273,0.655l-0.89,2.674c-0.525-0.237-1.441-0.553-2.568-0.553c-0.994,0-1.65,0.42-1.65,1.127
		c0,0.524,0.523,0.971,1.546,1.441c1.415,0.708,2.882,1.755,2.882,3.537c0,2.936-2.488,4.533-5.895,4.507
		c-1.599-0.026-3.146-0.444-3.904-0.996L512.873,413.154z" />
        </g>
    </g>
</svg>
