<?xml version="1.0" encoding="utf-8"?>
<!-- Generator: Adobe Illustrator 15.1.0, SVG Export Plug-In . SVG Version: 6.00 Build 0)  -->
<svg version="1.1" id="Layer_1" xmlns="http://www.w3.org/2000/svg" xmlns:xlink="http://www.w3.org/1999/xlink" x="0px" y="0px" width="1133.86px" height="637.8px" viewBox="0 0 1133.86 637.8" enable-background="new 0 0 1133.86 637.8" xml:space="preserve">
    <g id="ventilacion">
        <image id="fondo" overflow="visible" width="3072" height="1728" xlink:href="img/aliadas1.jpg" transform="matrix(0.3691 0 0 0.3691 4.882813e-004 0.0049)">
        </image>
        <path fill="none" stroke="#EE8B22" stroke-width="1.0034" stroke-miterlimit="10" d="M117.231,638.759l298.844-267.188
    c0,0,1.407-2.72-1.688-3.533" />
        <line fill="none" stroke="#EE8B22" stroke-width="1.0034" stroke-miterlimit="10" x1="140.523" y1="640.025" x2="418.889" y2="379.543" />
        <polyline fill="none" stroke="#EE8B22" stroke-width="1.0034" stroke-miterlimit="10" points="277.863,638.746 342.355,543.489 
    342.355,556.244 " />
        <line fill="none" stroke="#EE8B22" stroke-width="1.0034" stroke-miterlimit="10" x1="342.355" y1="556.244" x2="288.214" y2="640.316" />
        <path fill="none" stroke="#EE8B22" stroke-width="1.0034" stroke-miterlimit="10" d="M355.537,639.498" />
        <line fill="none" stroke="#EE8B22" stroke-width="1.0034" stroke-miterlimit="10" x1="347.306" y1="446.752" x2="355.537" y2="639.498" />
        <path fill="none" stroke="#EE8B22" stroke-width="1.0034" stroke-miterlimit="10" d="M361.669,639.491" />
        <line fill="none" stroke="#EE8B22" stroke-width="1.0034" stroke-miterlimit="10" x1="351.359" y1="442.946" x2="361.669" y2="639.491" />
        <line fill="none" stroke="#EE8B22" stroke-width="1.0034" stroke-miterlimit="10" x1="374.302" y1="639.139" x2="413.636" y2="553.806" />
        <line fill="none" stroke="#EE8B22" stroke-width="1.0034" stroke-miterlimit="10" x1="357.174" y1="437.485" x2="367.608" y2="639.994" />
        <line fill="none" stroke="#EE8B22" stroke-width="1.0034" stroke-miterlimit="10" x1="409.41" y1="388.441" x2="413.636" y2="553.806" />
        <line fill="none" stroke="#EE8B22" stroke-width="1.0034" stroke-miterlimit="10" x1="411.33" y1="386.523" x2="415.555" y2="538.049" />
        <polyline fill="none" stroke="#EE8B22" stroke-width="1.0034" stroke-miterlimit="10" points="415.555,538.049 444.775,487.965 
    440.648,362.286 " />
        <line fill="none" stroke="#EE8B22" stroke-width="1.0034" stroke-miterlimit="10" x1="361.195" y1="515.545" x2="411.048" y2="452.507" />
        <line fill="none" stroke="#EE8B22" stroke-width="1.0034" stroke-miterlimit="10" x1="418.889" y1="379.543" x2="440.648" y2="362.286" />
        <line fill="none" stroke="#EE8B22" stroke-width="1.0034" stroke-miterlimit="10" x1="-5.421" y1="452.507" x2="227.555" y2="369.039" />
        <line fill="none" stroke="#EE8B22" stroke-width="1.0034" stroke-miterlimit="10" x1="-5.421" y1="302.26" x2="197.354" y2="288.378" />
        <path fill="none" stroke="#EE8B22" stroke-width="1.0034" stroke-miterlimit="10" d="M-5.421,281.625l201.087-9.998
    c0,0,3.564,4.37,1.688,16.75" />
        <line fill="none" stroke="#EE8B22" stroke-width="1.0034" stroke-miterlimit="10" x1="-8.719" y1="402.455" x2="225.679" y2="342.23" />
        <path fill="none" stroke="#EE8B22" stroke-width="1.0034" stroke-miterlimit="10" d="M-8.719,382.946l222.768-50.299
    c0,0,8.629,2.659,11.63,9.583" />
        <polyline fill="none" stroke="#EE8B22" stroke-width="1.0034" stroke-miterlimit="10" points="-5.421,151.444 130.763,173.016 
    162.652,174.704 " />
        <line fill="none" stroke="#EE8B22" stroke-width="1.0034" stroke-miterlimit="10" x1="-5.421" y1="137.188" x2="162.652" y2="174.704" />
        <polyline fill="none" stroke="#EE8B22" stroke-width="1.0034" stroke-miterlimit="10" points="-5.421,112.427 161.196,153.895 
    162.652,174.704 " />
        <line fill="none" stroke="#EE8B22" stroke-width="1.0034" stroke-miterlimit="10" x1="-5.421" y1="97.42" x2="205.045" y2="160.448" />
        <polyline fill="none" stroke="#EE8B22" stroke-width="1.0034" stroke-miterlimit="10" points="-3.545,28.39 289.457,154.07 
    213.552,155.946 " />
        <path fill="none" stroke="#EE8B22" stroke-width="1.0034" stroke-miterlimit="10" d="M7.334-0.873l301.632,147.814
    c0,0,1.875,3.877-1.125,11.755l-93.791,1.75" />
        <path fill="none" stroke="#EE8B22" stroke-width="1.0034" stroke-miterlimit="10" d="M205.045,154.195l9.505,115.55
    c0,0,3.001,2.001,7.253,0l-8.378-115.55C213.425,154.195,210.547,151.444,205.045,154.195z" />
        <path fill="none" stroke="#EE8B22" stroke-width="1.0034" stroke-miterlimit="10" d="M289.59,158.013l6.995,108.606
    c0,0,2.626,3.001,7.69,0l-6.377-108.61C297.898,158.009,293.959,155.946,289.59,158.013z" />
        <line fill="none" stroke="#EE8B22" stroke-width="1.0034" stroke-miterlimit="10" x1="162.652" y1="176.58" x2="169.78" y2="269.135" />
        <line fill="none" stroke="#EE8B22" stroke-width="1.0034" stroke-miterlimit="10" x1="130.239" y1="176.58" x2="137.367" y2="269.135" />
        <path fill="none" stroke="#EE8B22" stroke-width="1.0034" stroke-miterlimit="10" d="M205.045,271.628l103.22-2.493
    c0,0,2.764,6.301,0.513,10.869" />
        <path fill="none" stroke="#EE8B22" stroke-width="1.0034" stroke-miterlimit="10" d="M205.045,271.628c0,0-2.814,6.246,0.563,11.123
    l103.17-2.748" />
        <path fill="none" stroke="#EE8B22" stroke-width="1.0034" stroke-miterlimit="10" d="M308.265,269.135l11.95-1.08
    c0,0,3.384,3.651,0.945,10.647" />
        <line fill="none" stroke="#EE8B22" stroke-width="1.0034" stroke-miterlimit="10" x1="308.778" y1="280.003" x2="321.16" y2="278.703" />
        <polyline fill="none" stroke="#EE8B22" stroke-width="1.0034" stroke-miterlimit="10" points="205.983,270.746 235.809,269.135 
    320.033,267.182 " />
        <path fill="none" stroke="#EE8B22" stroke-width="1.0034" stroke-miterlimit="10" d="M220.616,282.351l7.689,89.992
    c0,0,4.267,1.854,8.066-0.771" />
        <line fill="none" stroke="#EE8B22" stroke-width="1.0034" stroke-miterlimit="10" x1="229.337" y1="282.12" x2="235.809" y2="371.918" />
        <path fill="none" stroke="#EE8B22" stroke-width="1.0034" stroke-miterlimit="10" d="M290.77,280.483l6.164,89.493
    c0,0,3.028,2.626,7.342,0" />
        <line fill="none" stroke="#EE8B22" stroke-width="1.0034" stroke-miterlimit="10" x1="298.648" y1="280.483" x2="304.276" y2="369.977" />
        <line fill="none" stroke="#EE8B22" stroke-width="1.0034" stroke-miterlimit="10" x1="235.529" y1="368.038" x2="296.799" y2="368.038" />
        <line fill="none" stroke="#EE8B22" stroke-width="1.0034" stroke-miterlimit="10" x1="304.276" y1="368.038" x2="414.387" y2="368.038" />
        <line fill="none" stroke="#EE8B22" stroke-width="1.0034" stroke-miterlimit="10" x1="416.392" y1="370.258" x2="417.385" y2="380.954" />
        <polyline fill="none" stroke="#EE8B22" stroke-width="1.0034" stroke-miterlimit="10" points="242.313,371.918 153.273,405.805 
    349.609,404.304 " />
        <polyline fill="none" stroke="#EE8B22" stroke-width="1.0034" stroke-miterlimit="10" points="349.609,404.304 391.877,370.914 
    242.313,371.918 " />
        <path fill="none" stroke="#EE8B22" stroke-width="1.0034" stroke-miterlimit="10" d="M174.282,402.455l32.766-13.594
    c0,0,3.501-1.189,7.503-1.252c4.001-0.063,142.624-1.086,142.624-1.086" />
        <polyline fill="none" stroke="#EE8B22" stroke-width="1.0034" stroke-miterlimit="10" points="174.282,402.455 339.354,399.802 
    357.174,386.523 " />
        <path fill="none" stroke="#EE8B22" stroke-width="0.8853" stroke-miterlimit="10" d="M216.863,384.97l25.45-9.825
    c0,0,3.089-1.049,6.618-1.104c3.532-0.055,128.188-1.063,128.188-1.063" />
        <polyline fill="none" stroke="#EE8B22" stroke-width="0.8853" stroke-miterlimit="10" points="216.863,384.97 362.498,382.63 
    377.119,372.979 " />
        <polyline fill="none" stroke="#EE8B22" stroke-width="0.8853" stroke-miterlimit="10" points="232.302,323.26 275.576,322.769 
    294.208,368.038 " />
        <line fill="none" stroke="#EE8B22" stroke-width="0.8853" stroke-miterlimit="10" x1="275.576" y1="322.769" x2="293.364" y2="318.767" />
        <line fill="none" stroke="#EE8B22" stroke-width="0.8853" stroke-miterlimit="10" x1="278.078" y1="328.847" x2="293.852" y2="325.229" />
        <polyline fill="none" stroke="#EE8B22" stroke-width="0.8853" stroke-miterlimit="10" points="300.914,317.266 328.849,311.139 
    329.975,316.015 " />
        <line fill="none" stroke="#EE8B22" stroke-width="0.8853" stroke-miterlimit="10" x1="301.462" y1="322.769" x2="329.975" y2="316.015" />
        <line fill="none" stroke="#EE8B22" stroke-width="0.8853" stroke-miterlimit="10" x1="278.827" y1="328.847" x2="294.717" y2="337.792" />
        <polyline fill="none" stroke="#EE8B22" stroke-width="0.8853" stroke-miterlimit="10" points="302.44,340.776 351.359,362.286 
    388.626,345.028 " />
        <polyline fill="none" stroke="#EE8B22" stroke-width="0.8853" stroke-miterlimit="10" points="329.975,316.015 388.626,342.23 
    388.626,345.028 " />
        <polyline fill="none" stroke="#EE8B22" stroke-width="0.8853" stroke-miterlimit="10" points="410.949,368.038 440.997,347.779 
    387.814,345.403 " />
        <polyline fill="none" stroke="#EE8B22" stroke-width="0.8853" stroke-miterlimit="10" points="416.888,373.228 441.356,355.221 
    441.649,347.779 " />
        <line fill="none" stroke="#EE8B22" stroke-width="0.8853" stroke-miterlimit="10" x1="431.755" y1="362.286" x2="440.648" y2="362.286" />
        <polyline fill="none" stroke="#EE8B22" stroke-width="0.8853" stroke-miterlimit="10" points="379.951,639.76 415.555,558.372 
    415.539,537.478 " />
        <polyline fill="none" stroke="#EE8B22" stroke-width="0.8853" stroke-miterlimit="10" points="423.325,524.73 622.603,524.73 
    629.73,128.934 " />
        <line fill="none" stroke="#EE8B22" stroke-width="0.8853" stroke-miterlimit="10" x1="629.73" y1="128.934" x2="803.994" y2="133.249" />
        <line fill="none" stroke="#EE8B22" stroke-width="0.8853" stroke-miterlimit="10" x1="652.24" y1="-0.873" x2="652.24" y2="81.206" />
        <polyline fill="none" stroke="#EE8B22" stroke-width="0.8853" stroke-miterlimit="10" points="705.889,-3.499 639.86,99.508 
    639.86,123.307 " />
        <polyline fill="none" stroke="#EE8B22" stroke-width="0.8853" stroke-miterlimit="10" points="731.775,-3.499 639.86,123.307 
    816.75,127.434 " />
        <line fill="none" stroke="#EE8B22" stroke-width="0.8853" stroke-miterlimit="10" x1="755.785" y1="-0.873" x2="654.491" y2="123.307" />
        <path fill="none" stroke="#EE8B22" stroke-width="0.8853" stroke-miterlimit="10" d="M685.256,361.035c0,0-17.883,0.626-24.261,0.75
    c-6.378,0.125-7.004,4.627-7.004,4.627v5.378l9.341,9.314" />
        <path fill="none" stroke="#EE8B22" stroke-width="0.8853" stroke-miterlimit="10" d="M663.309,381.482l0.312-5.081
    c0,0,0.625-4.503,7.003-4.627c6.378-0.125,27.514-0.751,27.514-0.751" />
        <path fill="none" stroke="#EE8B22" stroke-width="0.8853" stroke-miterlimit="10" d="M699.763,373.166
    c0,0-21.636,0.369-28.014,0.494s-7.004,4.627-7.004,4.627v5.378l66.003,64.993" />
        <path fill="none" stroke="#EE8B22" stroke-width="0.8853" stroke-miterlimit="10" d="M730.748,448.658v-7.213
    c0,0,1.279-5.752,8.407-5.878c6.378-0.113,47.269-1.25,47.269-1.25" />
        <path fill="none" stroke="#EE8B22" stroke-width="0.8853" stroke-miterlimit="10" d="M814.881,514.227v-10.045
    c0,0,1.279-5.75,8.407-5.876c6.378-0.114,66.556-1.252,66.556-1.252" />
        <path fill="none" stroke="#EE8B22" stroke-width="0.8853" stroke-miterlimit="10" d="M789.799,435.813c0,0-39.141,1.137-45.519,1.25
    c-7.128,0.126-8.408,5.878-8.408,5.878v7.213l79.009,64.072" />
        <line fill="none" stroke="#EE8B22" stroke-width="0.8853" stroke-miterlimit="10" x1="814.819" y1="514.238" x2="887.597" y2="512.925" />
        <line fill="none" stroke="#EE8B22" stroke-width="0.8853" stroke-miterlimit="10" x1="889.844" y1="497.054" x2="789.799" y2="435.813" />
        <line fill="none" stroke="#EE8B22" stroke-width="0.8853" stroke-miterlimit="10" x1="786.424" y1="434.317" x2="699.763" y2="373.166" />
        <line fill="none" stroke="#EE8B22" stroke-width="0.8853" stroke-miterlimit="10" x1="698.137" y1="371.023" x2="685.256" y2="361.035" />
        <polyline fill="none" stroke="#EE8B22" stroke-width="0.8853" stroke-miterlimit="10" points="886.718,517.04 765.353,520.604 
    759.537,638.01 " />
        <line fill="none" stroke="#EE8B22" stroke-width="0.8853" stroke-miterlimit="10" x1="765.353" y1="520.604" x2="878.751" y2="637.253" />
        <polyline fill="none" stroke="#EE8B22" stroke-width="0.8853" stroke-miterlimit="10" points="951.621,520.604 842.073,526.231 
    977.793,637.849 " />
        <line fill="none" stroke="#EE8B22" stroke-width="0.8853" stroke-miterlimit="10" x1="966.324" y1="528.307" x2="853.984" y2="535.977" />
        <path fill="none" stroke="#EE8B22" stroke-width="0.8853" stroke-miterlimit="10" d="M886.718,517.04l5.254-24.573
    c0,0,2.251-14.256,14.631-15.006c12.381-0.75,17.604-0.75,17.604-0.75" />
        <path fill="none" stroke="#EE8B22" stroke-width="0.8853" stroke-miterlimit="10" d="M923.234,424.313l1.375,73.969
    c0,0,0.188,3.001,3.188,4.689c3.001,1.688,12.943,6.94,12.943,6.94" />
        <path fill="none" stroke="#EE8B22" stroke-width="0.8853" stroke-miterlimit="10" d="M783.549,328.896c0,0,0,5.064,15.757,5.127
    c13.515,0.055,141.436,7.754,141.436,7.754s15.383-0.001,15.383,13.005l-4.503,165.822" />
        <path fill="none" stroke="#EE8B22" stroke-width="0.8853" stroke-miterlimit="10" d="M783.549,328.896c0,0,0-2.626,11.255-1.376
    c8.98,0.998,128.431,9.755,128.431,9.755l13.131,1.25c0,0,7.503,1,7.503,12.005s-3.127,155.111-3.127,155.111
    s-0.374,8.21,1.502,10.337c1.876,2.125,9.378,4.626,9.378,4.626" />
        <path fill="none" stroke="#EE8B22" stroke-width="0.8853" stroke-miterlimit="10" d="M838.884,346.529c0,0,0.938-3.544,9.942-2.794
    c9.004,0.751,158.757,11.298,158.757,11.298l13.131,1.25c0,0,7.503,1,7.503,12.005s-9.406,185.383-9.406,185.383
    s-0.207,8.075,1.502,10.338c2.777,3.679,13.844,6.492,13.844,6.492" />
        <path fill="none" stroke="#EE8B22" stroke-width="0.8853" stroke-miterlimit="10" d="M942.568,419.56h-19.334
    c0,0-4.566,1.173,0.812,4.335c4.899,2.878,18.255,8.548,18.255,8.548" />
        <path fill="none" stroke="#EE8B22" stroke-width="0.8853" stroke-miterlimit="10" d="M953.989,437.209l23.236,11.739
    c0,0,5.722,2.626,10.224,2.251s36.68,0.563,36.68,0.563" />
        <path fill="none" stroke="#EE8B22" stroke-width="0.8853" stroke-miterlimit="10" d="M951.621,520.604l15.758,8.253
    c0,0,7.128,4.364,14.006,4.309s12.122,0,12.122,0" />
        <path fill="none" stroke="#EE8B22" stroke-width="0.8853" stroke-miterlimit="10" d="M1024.129,453.326l-30.771-0.78
    c0,0-2.626,1.001,0,2.127c2.627,1.125,30.421,10.784,30.421,10.784" />
        <path fill="none" stroke="#EE8B22" stroke-width="0.8853" stroke-miterlimit="10" d="M994.226,455.015l-0.71,82.223
    c0,0-0.499,8.005,5.752,11.381c6.252,3.377,19.695,10.704,19.695,10.704" />
        <path fill="none" stroke="#EE8B22" stroke-width="0.8853" stroke-miterlimit="10" d="M838.884,346.529c0,0-4.126,5.439,27.889,6.377
    c22.19,0.65,169.636,10.505,169.636,10.505s5.627,1.501,5.627,6.378s-7.879,200.712-7.879,200.712" />
        <path fill="none" stroke="#EE8B22" stroke-width="0.8853" stroke-miterlimit="10" d="M960.376,346.529
    c0,0-2.377,8.628,25.762,11.255c18.442,1.721,150.314,14.756,150.314,14.756" />
        <path fill="none" stroke="#EE8B22" stroke-width="0.8853" stroke-miterlimit="10" d="M960.376,346.529c0,0-0.002-2.002,4.251-2.002
    s171.825,18.509,171.825,18.509" />
        <line fill="none" stroke="#EE8B22" stroke-width="0.8853" stroke-miterlimit="10" x1="954.429" y1="420.238" x2="1025.736" y2="422.067" />
        <line fill="none" stroke="#EE8B22" stroke-width="0.8853" stroke-miterlimit="10" x1="1042.035" y1="424.313" x2="1136.452" y2="431.565" />
        <line fill="none" stroke="#EE8B22" stroke-width="0.8853" stroke-miterlimit="10" x1="1038.918" y1="451.249" x2="1136.452" y2="453.326" />
        <line fill="none" stroke="#EE8B22" stroke-width="0.8853" stroke-miterlimit="10" x1="1038.836" y1="453.326" x2="1136.452" y2="456.018" />
        <path fill="none" stroke="#EE8B22" stroke-width="0.8853" stroke-miterlimit="10" d="M1038.153,470.523l40.022,18.819
    c0,0,4.002,1.749,10.38,1.749s47.896,0,47.896,0" />
        <path fill="none" stroke="#EE8B22" stroke-width="0.8853" stroke-miterlimit="10" d="M1034.251,568.15l30.669,18.482
    c0,0,6.753,4.751,19.884,4.502s41.304-1.022,41.304-1.022" />
        <path fill="none" stroke="#EE8B22" stroke-width="0.8853" stroke-miterlimit="10" d="M1131.892,495.181l-6.694,109.961
    c0,0-1,9.253,11.255,13.005" />
        <path fill="none" stroke="#EE8B22" stroke-width="0.8853" stroke-miterlimit="10" d="M1136.452,493.094c0,0-12.662-0.814,0,4.438" />
        <path fill="none" stroke="#EE8B22" stroke-width="0.8853" stroke-miterlimit="10" d="M789.799,435.813
    c0,0,1.814-13.938,17.571-14.752s116.676-1.502,116.676-1.502" />
        <line fill="none" stroke="#EE8B22" stroke-width="0.8853" stroke-miterlimit="10" x1="803.994" y1="133.249" x2="792.552" y2="327.311" />
        <line fill="none" stroke="#EE8B22" stroke-width="0.8853" stroke-miterlimit="10" x1="816.75" y1="127.434" x2="805.307" y2="328.421" />
        <line fill="none" stroke="#EE8B22" stroke-width="0.8853" stroke-miterlimit="10" x1="983.937" y1="197.671" x2="969.127" y2="344.527" />
        <polyline fill="none" stroke="#EE8B22" stroke-width="0.8853" stroke-miterlimit="10" points="905.101,-3.499 898.097,95.67 
    1121.735,361.414 " />
        <polyline fill="none" stroke="#EE8B22" stroke-width="0.8853" stroke-miterlimit="10" points="1136.452,13.634 915.605,105.174 
    1134.949,363.036 " />
        <line fill="none" stroke="#EE8B22" stroke-width="0.8853" stroke-miterlimit="10" x1="898.097" y1="95.67" x2="1122.695" y2="-0.873" />
        <polyline fill="none" stroke="#EE8B22" stroke-width="0.8853" stroke-miterlimit="10" points="747.12,9.751 833.568,116.679 
    898.097,83.665 " />
        <polyline fill="none" stroke="#EE8B22" stroke-width="0.8853" stroke-miterlimit="10" points="693.884,363.036 846.2,367.538 
    943.133,391.924 " />
        <line fill="none" stroke="#EE8B22" stroke-width="0.8853" stroke-miterlimit="10" x1="955.04" y1="394.729" x2="1026.029" y2="415.371" />
        <line fill="none" stroke="#EE8B22" stroke-width="0.8853" stroke-miterlimit="10" x1="753.639" y1="1.759" x2="843.224" y2="111.74" />
        <line fill="none" stroke="#EE8B22" stroke-width="0.8853" stroke-miterlimit="10" x1="760.515" y1="-2.087" x2="850.1" y2="107.893" />
        <line fill="none" stroke="#EE8B22" stroke-width="0.8853" stroke-miterlimit="10" x1="771.513" y1="-2.589" x2="858.635" y2="104.367" />
        <line fill="none" stroke="#EE8B22" stroke-width="0.8853" stroke-miterlimit="10" x1="780.628" y1="-2.589" x2="864.773" y2="100.714" />
        <line fill="none" stroke="#EE8B22" stroke-width="0.8853" stroke-miterlimit="10" x1="792.38" y1="-2.589" x2="873.068" y2="96.47" />
        <line fill="none" stroke="#EE8B22" stroke-width="0.8853" stroke-miterlimit="10" x1="804.153" y1="-2.589" x2="881.379" y2="92.218" />
        <line fill="none" stroke="#EE8B22" stroke-width="0.8853" stroke-miterlimit="10" x1="827.043" y1="-3.499" x2="898.097" y2="83.665" />
        <line fill="none" stroke="#EE8B22" stroke-width="0.8853" stroke-miterlimit="10" x1="816.75" y1="-2.589" x2="890.27" y2="87.669" />
        <line fill="none" stroke="#EE8B22" stroke-width="0.8853" stroke-miterlimit="10" x1="841.31" y1="-3.499" x2="900.011" y2="68.567" />
        <line fill="none" stroke="#EE8B22" stroke-width="0.8853" stroke-miterlimit="10" x1="854.153" y1="-3.499" x2="901.035" y2="54.058" />
        <line fill="none" stroke="#EE8B22" stroke-width="0.8853" stroke-miterlimit="10" x1="869.272" y1="-3.499" x2="901.418" y2="35.516" />
        <polyline fill="none" stroke="#EE8B22" stroke-width="0.8853" stroke-miterlimit="10" points="99.812,-5.375 254.904,92.168 
    642.32,95.67 " />
        <line fill="none" stroke="#EE8B22" stroke-width="0.8853" stroke-miterlimit="10" x1="622.699" y1="519.35" x2="661.994" y2="519.35" />
        <polyline fill="none" stroke="#EE8B22" stroke-width="0.8853" stroke-miterlimit="10" points="687.506,429.44 644.925,429.44 
    644.925,433.817 702.324,515.07 " />
        <line fill="none" stroke="#EE8B22" stroke-width="0.8853" stroke-miterlimit="10" x1="632.263" y1="424.155" x2="685.256" y2="423.894" />
        <polyline fill="none" stroke="#EE8B22" stroke-width="0.8853" stroke-miterlimit="10" points="632.263,424.155 632.263,430.439 
    644.925,430.565 " />
        <polyline fill="none" stroke="#EE8B22" stroke-width="0.8853" stroke-miterlimit="10" points="644.925,429.44 705.889,511.506 
    712.391,515.07 757.887,514.701 " />
        <polyline fill="none" stroke="#EE8B22" stroke-width="0.8853" stroke-miterlimit="10" points="702.324,515.07 710.016,520.604 
    757.71,520.231 " />
        <line fill="none" stroke="#EE8B22" stroke-width="0.8853" stroke-miterlimit="10" x1="723.709" y1="520.604" x2="762.676" y2="574.622" />
        <line fill="none" stroke="#EE8B22" stroke-width="0.8853" stroke-miterlimit="10" x1="710.016" y1="520.604" x2="761.445" y2="599.488" />
        <path fill="none" stroke="#EE8B22" stroke-width="0.8853" stroke-miterlimit="10" d="M661.994,457.981l0.938,93.386
    c0,0,3.001,2.438,7.315-0.188l-0.101-31.47" />
        <polyline fill="none" stroke="#EE8B22" stroke-width="0.8853" stroke-miterlimit="10" points="668.747,506.16 668.747,517.04 
    708.646,593.116 " />
        <line fill="none" stroke="#EE8B22" stroke-width="0.8853" stroke-miterlimit="10" x1="668.747" y1="506.16" x2="709.045" y2="581.917" />
        <line fill="none" stroke="#EE8B22" stroke-width="0.8853" stroke-miterlimit="10" x1="668.747" y1="471.01" x2="668.747" y2="506.629" />
        <line fill="none" stroke="#EE8B22" stroke-width="0.8853" stroke-miterlimit="10" x1="710.953" y1="522.049" x2="707.39" y2="638.01" />
        <line fill="none" stroke="#EE8B22" stroke-width="0.8853" stroke-miterlimit="10" x1="721.083" y1="537.63" x2="718.645" y2="602.223" />
        <polyline fill="none" stroke="#EE8B22" stroke-width="0.8853" stroke-miterlimit="10" points="716.394,597.981 716.394,611.862 
    730.018,638.01 " />
        <line fill="none" stroke="#EE8B22" stroke-width="0.8853" stroke-miterlimit="10" x1="716.394" y1="597.981" x2="738.001" y2="637.253" />
        <line fill="none" stroke="#EE8B22" stroke-width="0.8853" stroke-miterlimit="10" x1="626.166" y1="414.527" x2="632.263" y2="424.155" />
        <line fill="none" stroke="#EE8B22" stroke-width="0.8853" stroke-miterlimit="10" x1="687.506" y1="429.44" x2="758.179" y2="505.642" />
        <polyline fill="none" stroke="#EE8B22" stroke-width="0.8853" stroke-miterlimit="10" points="759.35,469.192 757.318,532.39 
    764.744,532.879 " />
        <line fill="none" stroke="#EE8B22" stroke-width="0.8853" stroke-miterlimit="10" x1="251.316" y1="20.887" x2="256.362" y2="121.163" />
        <line fill="none" stroke="#EE8B22" stroke-width="0.8853" stroke-miterlimit="10" x1="257.353" y1="160.448" x2="261.071" y2="222.857" />
        <line fill="none" stroke="#EE8B22" stroke-width="0.8853" stroke-miterlimit="10" x1="791.888" y1="333.509" x2="790.055" y2="365.879" />
        <line fill="none" stroke="#EE8B22" stroke-width="0.8853" stroke-miterlimit="10" x1="805.354" y1="334.047" x2="803.994" y2="366.291" />
        <polyline fill="none" stroke="#EE8B22" stroke-width="0.8853" stroke-miterlimit="10" points="816.75,127.434 860.205,127.434 
    848.071,331.699 " />
        <line fill="none" stroke="#EE8B22" stroke-width="0.8853" stroke-miterlimit="10" x1="847.951" y1="336.387" x2="847.639" y2="343.632" />
        <line fill="none" stroke="#EE8B22" stroke-width="0.8853" stroke-miterlimit="10" x1="847.166" y1="351.217" x2="846.2" y2="367.538" />
        <path id="flecha2" fill="none" d="M711.67,176.34c-1.836-1.111-4.142-1.094-5.963,0.044l-30.632,19.156
    c-1.28,0.802-2.19,2.079-2.527,3.552c-0.339,1.473-0.076,3.02,0.727,4.299c2.313,3.683,5.642,6.851,9.27,9.516
    c-29.416,35.396-71.011,27.186-72.999,26.764c-3.076-0.658-6.091,1.296-6.752,4.366c-0.662,3.071,1.292,6.099,4.363,6.761
    c0.384,0.083,6.145,1.29,14.94,1.29c5.531,0,12.261-0.477,19.605-2.01c14.768-3.084,34.473-11.095,50.689-31.265
    c5.815,2.876,10.764,4.461,11.832,4.79c0.547,0.169,1.109,0.251,1.669,0.251c1.131,0,2.25-0.337,3.205-0.988
    c1.428-0.974,2.336-2.544,2.469-4.268l2.831-36.954C714.562,179.503,713.506,177.452,711.67,176.34z" />
        <path id="flecha1" fill="none" d="M775.3,180.756l-17.622-28.949c-1.023-1.678-2.911-2.64-4.855-2.481
    c-1.958,0.155-3.661,1.398-4.405,3.215l-12.52,30.572c-0.523,1.279-0.516,2.713,0.019,3.987c0.535,1.274,1.556,2.283,2.835,2.804
    c3.329,1.356,7.343,2.05,11.908,2.094c-2.906,35.705-31.021,53.98-32.392,54.847c-2.429,1.528-3.162,4.735-1.637,7.167
    c0.987,1.576,2.68,2.44,4.412,2.44c0.945,0,1.901-0.257,2.76-0.795c1.568-0.983,34.874-22.397,37.373-64.541
    c6.281-1.041,11.05-2.625,11.343-2.724c1.497-0.505,2.685-1.664,3.226-3.149C776.284,183.757,776.122,182.107,775.3,180.756z" />
        <path id="flecha3" fill="none" d="M698.463,265.301c-1.245-1.517-3.24-2.204-5.154-1.78l-32.248,7.178
    c-1.35,0.299-2.523,1.124-3.263,2.291c-0.74,1.167-0.986,2.579-0.684,3.928c0.846,3.765,2.678,7.394,4.9,10.718
    c-32.822,17.412-73.019,2.424-73.473,2.25c-2.684-1.032-5.689,0.305-6.723,2.984c-1.033,2.681,0.302,5.693,2.982,6.727
    c1.282,0.495,18.681,7.034,40.549,7.034c13.667,0,29.076-2.583,43.384-10.769c4.197,4.341,8.07,7.298,8.901,7.914
    c0.905,0.671,1.994,1.023,3.098,1.023c0.444,0,0.892-0.057,1.329-0.173c1.529-0.404,2.791-1.48,3.43-2.926l13.705-30.996
    C699.991,268.908,699.707,266.819,698.463,265.301z" />
        <g id="aire1">
            <path fill="none" d="M53.103,224.994c-0.922,0-1.856-0.243-2.706-0.752c-2.493-1.498-3.302-4.733-1.805-7.227
        c5.806-9.671,22.506-25.931,44.172-18.239c2.935,1.042,5.575,2.323,8.128,3.562c10.456,5.073,18.011,8.742,36.97-11.783
        c1.976-2.137,5.308-2.269,7.442-0.295c2.137,1.973,2.27,5.306,0.295,7.442c-22.474,24.332-35.116,20.998-49.307,14.112
        c-2.4-1.165-4.668-2.266-7.053-3.112c-19.046-6.767-31.493,13.528-31.616,13.734C56.636,224.082,54.891,224.994,53.103,224.994z" />
        </g>
        <g id="aire2">
            <path fill="none" d="M67.969,264.09c-0.926,0-1.864-0.245-2.714-0.758c-2.484-1.501-3.29-4.723-1.796-7.212
        c5.807-9.671,22.508-25.927,44.171-18.24c2.935,1.042,5.575,2.323,8.127,3.563c10.456,5.075,18.011,8.743,36.971-11.783
        c1.976-2.136,5.307-2.268,7.442-0.295c2.137,1.973,2.27,5.306,0.295,7.442c-22.476,24.333-35.118,20.999-49.308,14.112
        c-2.401-1.165-4.668-2.266-7.053-3.113c-18.904-6.709-31.112,12.91-31.623,13.749C71.49,263.187,69.75,264.09,67.969,264.09z" />
        </g>
        <g id="aire3">
            <path fill="none" d="M155.921,222.107c-0.928,0-1.868-0.246-2.718-0.762c-2.48-1.503-3.284-4.719-1.791-7.205
        c4.343-7.234,16.864-19.385,33.173-13.599c2.163,0.768,4.077,1.696,5.926,2.594c7.337,3.56,11.768,5.707,24.452-8.025
        c1.974-2.136,5.306-2.268,7.443-0.295c2.137,1.974,2.269,5.306,0.295,7.442c-16.635,18.009-26.503,15.346-36.788,10.355
        c-1.665-0.808-3.237-1.571-4.851-2.143c-12.226-4.342-20.293,8.561-20.63,9.113C159.436,221.207,157.699,222.107,155.921,222.107z" />
        </g>
        <g id="aire4">
            <path fill="none" d="M176.051,254.824c-0.928,0-1.868-0.246-2.718-0.761c-2.479-1.504-3.284-4.719-1.791-7.205
        c4.343-7.236,16.87-19.389,33.174-13.601c2.164,0.769,4.075,1.696,5.925,2.594c7.336,3.562,11.766,5.709,24.453-8.025
        c1.972-2.137,5.305-2.271,7.441-0.295c2.137,1.974,2.269,5.306,0.296,7.443c-16.636,18.012-26.505,15.347-36.79,10.354
        c-1.665-0.807-3.236-1.571-4.851-2.144c-12.222-4.332-20.291,8.564-20.629,9.116C179.566,253.924,177.829,254.824,176.051,254.824z
        " />
        </g>
        <polyline fill="none" stroke="#EE8B22" stroke-width="0.8853" stroke-miterlimit="10" points="757.318,501.035 675.688,414.246 
    626.166,414.527 626.166,421.655 632.263,430.439 " />
        <g id="humo3" class="a">
            <defs>
                <filter id="Adobe_OpacityMaskFilter" filterUnits="userSpaceOnUse" x="82.954" y="68.689" width="306.96" height="306.96">
                    <feFlood style="flood-color:white;flood-opacity:1" result="back" />
                    <feBlend in="SourceGraphic" in2="back" mode="normal" />
                </filter>
            </defs>
            <mask maskUnits="userSpaceOnUse" x="82.954" y="68.689" width="306.96" height="306.96" id="SVGID_1_">
                <g filter="url(#Adobe_OpacityMaskFilter)">
                </g>
            </mask>
            <g transform="matrix(1 0 0 1 -3.296300e-006 -2.729474e-006)" mask="url(#SVGID_1_)">
                <image overflow="visible" width="1279" height="1279" xlink:href="img/75E2F884.png" transform="matrix(0.24 0 0 0.24 82.9541 68.6895)">
                </image>
            </g>
        </g>
        <g id="humo4" class="b">
            <defs>
                <filter id="Adobe_OpacityMaskFilter_1_" filterUnits="userSpaceOnUse" x="176.557" y="3.675" width="306.96" height="306.96">
                    <feFlood style="flood-color:white;flood-opacity:1" result="back" />
                    <feBlend in="SourceGraphic" in2="back" mode="normal" />
                </filter>
            </defs>
            <mask maskUnits="userSpaceOnUse" x="176.557" y="3.675" width="306.96" height="306.96" id="SVGID_2_">
                <g filter="url(#Adobe_OpacityMaskFilter_1_)">
                </g>
            </mask>
            <g transform="matrix(1 0 0 1 -2.132918e-006 8.283882e-008)" mask="url(#SVGID_2_)">
                <image overflow="visible" width="1279" height="1279" xlink:href="img/75E2F88C.png" transform="matrix(0.24 0 0 0.24 176.5566 3.6753)">
                </image>
            </g>
        </g>
        <g id="humo5" class="a">
            <defs>
                <filter id="Adobe_OpacityMaskFilter_2_" filterUnits="userSpaceOnUse" x="269.907" y="92.611" width="306.96" height="306.96">
                    <feFlood style="flood-color:white;flood-opacity:1" result="back" />
                    <feBlend in="SourceGraphic" in2="back" mode="normal" />
                </filter>
            </defs>
            <mask maskUnits="userSpaceOnUse" x="269.907" y="92.611" width="306.96" height="306.96" id="SVGID_3_">
                <g filter="url(#Adobe_OpacityMaskFilter_2_)">
                </g>
            </mask>
            <g transform="matrix(1 0 0 1 -9.595242e-007 1.202789e-006)" mask="url(#SVGID_3_)">
                <image overflow="visible" width="1279" height="1279" xlink:href="img/75E2F883.png" transform="matrix(0.24 0 0 0.24 269.9072 92.6108)">
                </image>
            </g>
        </g>
        <g id="humo7" class="a">
            <defs>
                <filter id="Adobe_OpacityMaskFilter_3_" filterUnits="userSpaceOnUse" x="373.11" y="9.656" width="306.96" height="306.96">
                    <feFlood style="flood-color:white;flood-opacity:1" result="back" />
                    <feBlend in="SourceGraphic" in2="back" mode="normal" />
                </filter>
            </defs>
            <mask maskUnits="userSpaceOnUse" x="373.11" y="9.656" width="306.96" height="306.96" id="SVGID_4_">
                <g filter="url(#Adobe_OpacityMaskFilter_3_)">
                </g>
            </mask>
            <g transform="matrix(1 0 0 1 -1.482607e-005 2.266661e-007)" mask="url(#SVGID_4_)">
                <image overflow="visible" width="1279" height="1279" xlink:href="img/75E2F887.png" transform="matrix(0.24 0 0 0.24 373.1104 9.6558)">
                </image>
            </g>
        </g>
        <g id="humo8" class="b">
            <defs>
                <filter id="Adobe_OpacityMaskFilter_4_" filterUnits="userSpaceOnUse" x="387.325" y="92.611" width="306.96" height="306.96">
                    <feFlood style="flood-color:white;flood-opacity:1" result="back" />
                    <feBlend in="SourceGraphic" in2="back" mode="normal" />
                </filter>
            </defs>
            <mask maskUnits="userSpaceOnUse" x="387.325" y="92.611" width="306.96" height="306.96" id="SVGID_5_">
                <g filter="url(#Adobe_OpacityMaskFilter_4_)">
                </g>
            </mask>
            <g transform="matrix(1 0 0 1 1.390596e-005 1.202789e-006)" mask="url(#SVGID_5_)">
                <image overflow="visible" width="1279" height="1279" xlink:href="img/9CDEB61.png" transform="matrix(0.24 0 0 0.24 387.3252 92.6108)">
                </image>
            </g>
        </g>
        <g id="humo6" class="b">
            <defs>
                <filter id="Adobe_OpacityMaskFilter_5_" filterUnits="userSpaceOnUse" x="331.922" y="-12.112" width="208.56" height="208.56">
                    <feFlood style="flood-color:white;flood-opacity:1" result="back" />
                    <feBlend in="SourceGraphic" in2="back" mode="normal" />
                </filter>
            </defs>
            <mask maskUnits="userSpaceOnUse" x="331.922" y="-12.112" width="208.56" height="208.56" id="SVGID_6_">
                <g filter="url(#Adobe_OpacityMaskFilter_5_)">
                </g>
            </mask>
            <g mask="url(#SVGID_6_)">
                <defs>
                    <filter id="Adobe_OpacityMaskFilter_6_" filterUnits="userSpaceOnUse" x="331.922" y="-12.112" width="208.56" height="208.56">
                        <feFlood style="flood-color:white;flood-opacity:1" result="back" />
                        <feBlend in="SourceGraphic" in2="back" mode="normal" />
                    </filter>
                </defs>
                <mask maskUnits="userSpaceOnUse" x="331.922" y="-12.112" width="208.56" height="208.56" id="SVGID_6_">
                    <g filter="url(#Adobe_OpacityMaskFilter_6_)">
                    </g>
                </mask>
                <g transform="matrix(1 0 0 1 6.341841e-006 1.761045e-007)">
                    <image overflow="visible" width="869" height="869" xlink:href="img/9CDEB63.png" transform="matrix(0.24 0 0 0.24 331.9224 -12.1118)">
                    </image>
                </g>
            </g>
        </g>
        <g id="humo15" class="a">
            <defs>
                <filter id="Adobe_OpacityMaskFilter_7_" filterUnits="userSpaceOnUse" x="743.82" y="220.904" width="212.64" height="212.64">
                    <feFlood style="flood-color:white;flood-opacity:1" result="back" />
                    <feBlend in="SourceGraphic" in2="back" mode="normal" />
                </filter>
            </defs>
            <mask maskUnits="userSpaceOnUse" x="743.82" y="220.904" width="212.64" height="212.64" id="SVGID_7_">
                <g filter="url(#Adobe_OpacityMaskFilter_7_)">
                </g>
            </mask>
            <g mask="url(#SVGID_7_)">
                <defs>
                    <filter id="Adobe_OpacityMaskFilter_8_" filterUnits="userSpaceOnUse" x="745.82" y="222.904" width="208.56" height="208.56">
                        <feFlood style="flood-color:white;flood-opacity:1" result="back" />
                        <feBlend in="SourceGraphic" in2="back" mode="normal" />
                    </filter>
                </defs>
                <mask maskUnits="userSpaceOnUse" x="745.82" y="222.904" width="208.56" height="208.56" id="SVGID_7_">
                    <g filter="url(#Adobe_OpacityMaskFilter_8_)">
                    </g>
                </mask>
                <g transform="matrix(1 0 0 1 5.573288e-005 1.963073e-005)">
                    <image overflow="visible" width="869" height="869" xlink:href="img/9CDEB62.png" transform="matrix(0.24 0 0 0.24 745.8203 222.9038)">
                    </image>
                </g>
            </g>
        </g>
        <g id="humo14" class="b">
            <defs>
                <filter id="Adobe_OpacityMaskFilter_9_" filterUnits="userSpaceOnUse" x="688.272" y="249.502" width="208.56" height="208.56">
                    <feFlood style="flood-color:white;flood-opacity:1" result="back" />
                    <feBlend in="SourceGraphic" in2="back" mode="normal" />
                </filter>
            </defs>
            <mask maskUnits="userSpaceOnUse" x="688.272" y="249.502" width="208.56" height="208.56" id="SVGID_8_">
                <g filter="url(#Adobe_OpacityMaskFilter_9_)">
                </g>
            </mask>
            <g mask="url(#SVGID_8_)">
                <defs>
                    <filter id="Adobe_OpacityMaskFilter_10_" filterUnits="userSpaceOnUse" x="688.272" y="249.502" width="208.56" height="208.56">
                        <feFlood style="flood-color:white;flood-opacity:1" result="back" />
                        <feBlend in="SourceGraphic" in2="back" mode="normal" />
                    </filter>
                </defs>
                <mask maskUnits="userSpaceOnUse" x="688.272" y="249.502" width="208.56" height="208.56" id="SVGID_8_">
                    <g filter="url(#Adobe_OpacityMaskFilter_10_)">
                    </g>
                </mask>
                <g transform="matrix(1 0 0 1 1.171301e-005 -9.914336e-006)">
                    <image overflow="visible" width="869" height="869" xlink:href="img/9CDEB9A.png" transform="matrix(0.24 0 0 0.24 688.2725 249.5024)">
                    </image>
                </g>
            </g>
        </g>
        <g id="humo2" class="b">
            <defs>
                <filter id="Adobe_OpacityMaskFilter_11_" filterUnits="userSpaceOnUse" x="12.952" y="120.714" width="208.56" height="208.56">
                    <feFlood style="flood-color:white;flood-opacity:1" result="back" />
                    <feBlend in="SourceGraphic" in2="back" mode="normal" />
                </filter>
            </defs>
            <mask maskUnits="userSpaceOnUse" x="12.952" y="120.714" width="208.56" height="208.56" id="SVGID_9_">
                <g filter="url(#Adobe_OpacityMaskFilter_11_)">
                </g>
            </mask>
            <g mask="url(#SVGID_9_)">
                <defs>
                    <filter id="Adobe_OpacityMaskFilter_12_" filterUnits="userSpaceOnUse" x="12.952" y="120.714" width="208.56" height="208.56">
                        <feFlood style="flood-color:white;flood-opacity:1" result="back" />
                        <feBlend in="SourceGraphic" in2="back" mode="normal" />
                    </filter>
                </defs>
                <mask maskUnits="userSpaceOnUse" x="12.952" y="120.714" width="208.56" height="208.56" id="SVGID_9_">
                    <g filter="url(#Adobe_OpacityMaskFilter_12_)">
                    </g>
                </mask>
                <g transform="matrix(1 0 0 1 9.569885e-008 -2.355351e-006)">
                    <image overflow="visible" width="869" height="869" xlink:href="img/9CDEB86.png" transform="matrix(0.24 0 0 0.24 12.9517 120.7144)">
                    </image>
                </g>
            </g>
        </g>
        <g id="humo1" class="a">
            <defs>
                <filter id="Adobe_OpacityMaskFilter_13_" filterUnits="userSpaceOnUse" x="-28.666" y="93.391" width="208.56" height="208.56">
                    <feFlood style="flood-color:white;flood-opacity:1" result="back" />
                    <feBlend in="SourceGraphic" in2="back" mode="normal" />
                </filter>
            </defs>
            <mask maskUnits="userSpaceOnUse" x="-28.666" y="93.391" width="208.56" height="208.56" id="SVGID_10_">
                <g filter="url(#Adobe_OpacityMaskFilter_13_)">
                </g>
            </mask>
            <g mask="url(#SVGID_10_)">
                <defs>
                    <filter id="Adobe_OpacityMaskFilter_14_" filterUnits="userSpaceOnUse" x="-28.666" y="93.391" width="208.56" height="208.56">
                        <feFlood style="flood-color:white;flood-opacity:1" result="back" />
                        <feBlend in="SourceGraphic" in2="back" mode="normal" />
                    </filter>
                </defs>
                <mask maskUnits="userSpaceOnUse" x="-28.666" y="93.391" width="208.56" height="208.56" id="SVGID_10_">
                    <g filter="url(#Adobe_OpacityMaskFilter_14_)">
                    </g>
                </mask>
                <g transform="matrix(1 0 0 1 -8.161805e-008 -3.711029e-006)">
                    <image overflow="visible" width="869" height="869" xlink:href="img/9CDEB8E.png" transform="matrix(0.24 0 0 0.24 -28.666 93.3911)">
                    </image>
                </g>
            </g>
        </g>
        <g id="humo12" class="b">
            <defs>
                <filter id="Adobe_OpacityMaskFilter_15_" filterUnits="userSpaceOnUse" x="519.887" y="-32.045" width="212.64" height="212.64">
                    <feFlood style="flood-color:white;flood-opacity:1" result="back" />
                    <feBlend in="SourceGraphic" in2="back" mode="normal" />
                </filter>
            </defs>
            <mask maskUnits="userSpaceOnUse" x="519.887" y="-32.045" width="212.64" height="212.64" id="SVGID_11_">
                <g filter="url(#Adobe_OpacityMaskFilter_15_)">
                </g>
            </mask>
            <g mask="url(#SVGID_11_)">
                <defs>
                    <filter id="Adobe_OpacityMaskFilter_16_" filterUnits="userSpaceOnUse" x="521.887" y="-30.045" width="208.56" height="208.56">
                        <feFlood style="flood-color:white;flood-opacity:1" result="back" />
                        <feBlend in="SourceGraphic" in2="back" mode="normal" />
                    </filter>
                </defs>
                <mask maskUnits="userSpaceOnUse" x="521.887" y="-30.045" width="208.56" height="208.56" id="SVGID_11_">
                    <g filter="url(#Adobe_OpacityMaskFilter_16_)">
                    </g>
                </mask>
                <g transform="matrix(1 0 0 1 1.166509e-005 -2.502622e-006)">
                    <image overflow="visible" width="869" height="869" xlink:href="img/9CDEB8A.png" transform="matrix(0.24 0 0 0.24 521.8872 -30.0454)">
                    </image>
                </g>
            </g>
        </g>
        <g id="humo9" class="a">
            <defs>
                <filter id="Adobe_OpacityMaskFilter_17_" filterUnits="userSpaceOnUse" x="408.775" y="252.441" width="208.56" height="208.56">
                    <feFlood style="flood-color:white;flood-opacity:1" result="back" />
                    <feBlend in="SourceGraphic" in2="back" mode="normal" />
                </filter>
            </defs>
            <mask maskUnits="userSpaceOnUse" x="408.775" y="252.441" width="208.56" height="208.56" id="SVGID_12_">
                <g filter="url(#Adobe_OpacityMaskFilter_17_)">
                </g>
            </mask>
            <g mask="url(#SVGID_12_)">
                <defs>
                    <filter id="Adobe_OpacityMaskFilter_18_" filterUnits="userSpaceOnUse" x="408.775" y="252.441" width="208.56" height="208.56">
                        <feFlood style="flood-color:white;flood-opacity:1" result="back" />
                        <feBlend in="SourceGraphic" in2="back" mode="normal" />
                    </filter>
                </defs>
                <mask maskUnits="userSpaceOnUse" x="408.775" y="252.441" width="208.56" height="208.56" id="SVGID_12_">
                    <g filter="url(#Adobe_OpacityMaskFilter_18_)">
                    </g>
                </mask>
                <g transform="matrix(1 0 0 1 1.305362e-005 -1.003110e-005)">
                    <image overflow="visible" width="869" height="869" xlink:href="img/9CDEB95.png" transform="matrix(0.24 0 0 0.24 408.7749 252.4409)">
                    </image>
                </g>
            </g>
        </g>
        <g id="humo10" class="b">
            <defs>
                <filter id="Adobe_OpacityMaskFilter_19_" filterUnits="userSpaceOnUse" x="505.342" y="169.35" width="306.96" height="306.96">
                    <feFlood style="flood-color:white;flood-opacity:1" result="back" />
                    <feBlend in="SourceGraphic" in2="back" mode="normal" />
                </filter>
            </defs>
            <mask maskUnits="userSpaceOnUse" x="505.342" y="169.35" width="306.96" height="306.96" id="SVGID_13_">
                <g filter="url(#Adobe_OpacityMaskFilter_19_)">
                </g>
            </mask>
            <g transform="matrix(1 0 0 1 -2.008048e-005 3.036257e-006)" mask="url(#SVGID_13_)">
                <image overflow="visible" width="1279" height="1279" xlink:href="img/9CDEB94.png" transform="matrix(0.24 0 0 0.24 505.3418 169.3501)">
                </image>
            </g>
        </g>
        <g id="humo13" class="a">
            <defs>
                <filter id="Adobe_OpacityMaskFilter_20_" filterUnits="userSpaceOnUse" x="645.014" y="76.861" width="306.96" height="306.96">
                    <feFlood style="flood-color:white;flood-opacity:1" result="back" />
                    <feBlend in="SourceGraphic" in2="back" mode="normal" />
                </filter>
            </defs>
            <mask maskUnits="userSpaceOnUse" x="645.014" y="76.861" width="306.96" height="306.96" id="SVGID_14_">
                <g filter="url(#Adobe_OpacityMaskFilter_20_)">
                </g>
            </mask>
            <g transform="matrix(1 0 0 1 -6.099290e-006 -6.127884e-007)" mask="url(#SVGID_14_)">
                <image overflow="visible" width="1279" height="1279" xlink:href="img/9CDEB9D.png" transform="matrix(0.24 0 0 0.24 645.0137 76.8613)">
                </image>
            </g>
        </g>
        <g id="humo16" class="b">
            <defs>
                <filter id="Adobe_OpacityMaskFilter_21_" filterUnits="userSpaceOnUse" x="661.656" y="-45.525" width="306.96" height="306.96">
                    <feFlood style="flood-color:white;flood-opacity:1" result="back" />
                    <feBlend in="SourceGraphic" in2="back" mode="normal" />
                </filter>
            </defs>
            <mask maskUnits="userSpaceOnUse" x="661.656" y="-45.525" width="306.96" height="306.96" id="SVGID_15_">
                <g filter="url(#Adobe_OpacityMaskFilter_21_)">
                </g>
            </mask>
            <g transform="matrix(1 0 0 1 1.277064e-005 -6.323899e-007)" mask="url(#SVGID_15_)">
                <image overflow="visible" width="1279" height="1279" xlink:href="img/9CDEB9C.png" transform="matrix(0.24 0 0 0.24 661.6563 -45.5254)">
                </image>
            </g>
        </g>
        <g id="humo11" class="a">
            <defs>
                <filter id="Adobe_OpacityMaskFilter_22_" filterUnits="userSpaceOnUse" x="544.719" y="38.234" width="306.96" height="306.96">
                    <feFlood style="flood-color:white;flood-opacity:1" result="back" />
                    <feBlend in="SourceGraphic" in2="back" mode="normal" />
                </filter>
            </defs>
            <mask maskUnits="userSpaceOnUse" x="544.719" y="38.234" width="306.96" height="306.96" id="SVGID_16_">
                <g filter="url(#Adobe_OpacityMaskFilter_22_)">
                </g>
            </mask>
            <g transform="matrix(1 0 0 1 -2.113928e-006 -2.985944e-007)" mask="url(#SVGID_16_)">
                <image overflow="visible" width="1279" height="1279" xlink:href="img/75E2F88C.png" transform="matrix(0.24 0 0 0.24 544.7188 38.2344)">
                </image>
            </g>
        </g>


<g id="texto">
<rect xmlns="http://www.w3.org/2000/svg" x="295.382" y="166.157" opacity="0.5" fill="#EE8B22" width="543.096" height="305.491"/>
<g xmlns="http://www.w3.org/2000/svg">
    <path fill="#FFFFFF" d="M452.974,269.14h-7.324l-12.334-39.99h7.617l9.17,30.645l9.375-30.645h6.006L452.974,269.14z"/>
    <path fill="#FFFFFF" d="M496.011,269.14h-25.986v-39.99h25.723v5.947h-18.516v10.84h14.883v5.801h-14.883v11.191h18.779V269.14z"/>
    <path fill="#FFFFFF" d="M532.427,269.14h-7.002l-15.176-25.547c-0.234-0.391-0.615-1.025-1.143-1.904   c-0.234-0.391-0.596-1.006-1.084-1.846v29.297h-5.801v-39.99h7.969l14.004,23.555c0.117,0.195,0.967,1.631,2.549,4.307V229.15   h5.684V269.14z"/>
    <path fill="#FFFFFF" d="M555.19,269.14h-7.734v-33.809h-10.635v-6.182h29.004v6.182H555.19V269.14z"/>
    <path fill="#FFFFFF" d="M577.427,269.14h-7.207v-39.99h7.207V269.14z"/>
    <path fill="#FFFFFF" d="M610.825,269.14h-24.609v-39.99h7.588v33.457h17.021V269.14z"/>
    <path fill="#FFFFFF" d="M647.505,269.14H639.8l-3.193-9.521h-15.381l-3.135,9.521h-6.152l13.271-39.99h8.877L647.505,269.14z    M634.673,253.847l-5.83-17.842l-5.83,17.842H634.673z"/>
    <path fill="#FFFFFF" d="M683.481,269.14h-7.617l-6.211-16.436h-10.137v16.436h-7.207v-39.99h17.344   c4.823,0,8.368,1.089,10.635,3.267c2.266,2.178,3.398,4.995,3.398,8.452c0,5.137-2.402,8.672-7.207,10.605L683.481,269.14z    M659.517,246.933h8.965c2.597,0,4.53-0.546,5.801-1.641c1.27-1.094,1.904-2.597,1.904-4.512c0-1.758-0.626-3.179-1.875-4.263   c-1.25-1.084-2.999-1.626-5.244-1.626h-9.551V246.933z"/>
    <path fill="#FFFFFF" d="M697.31,241.513v7.295h-7.236v-7.295H697.31z M697.31,261.816v7.324h-7.236v-7.324H697.31z"/>
</g>

<g xmlns="http://www.w3.org/2000/svg">
    <path fill="#FFFFFF" d="M343.769,333.521h-4.843l-2.69-10.391h-5.919l-1.744,10.391h-4.527l4.23-25.328h9.537   c1.905,0,3.414,0.176,4.527,0.529s2.112,1.129,2.997,2.329c0.884,1.2,1.327,2.573,1.327,4.119c0,1.658-0.489,3.195-1.466,4.611   c-0.978,1.417-2.486,2.354-4.527,2.812L343.769,333.521z M330.929,319.438h6.29c1.93,0,3.201-0.43,3.813-1.29   c0.612-0.859,0.918-1.766,0.918-2.718c0-0.816-0.213-1.515-0.64-2.097c-0.427-0.581-0.931-0.968-1.512-1.16   c-0.582-0.191-1.454-0.288-2.616-0.288h-4.991L330.929,319.438z"/>
    <path fill="#FFFFFF" d="M364.142,328.196c-1.732,3.859-4.478,5.789-8.238,5.789c-2.474,0-4.419-0.761-5.835-2.282   c-1.417-1.521-2.125-3.544-2.125-6.067c0-3.216,0.894-5.932,2.681-8.146c1.787-2.214,4.085-3.321,6.893-3.321   c2.523,0,4.431,0.798,5.724,2.394c1.292,1.596,1.939,3.773,1.939,6.532c0,0.458-0.019,0.952-0.056,1.484h-12.97   c-0.087,0.532-0.13,1.002-0.13,1.41c0,1.423,0.343,2.566,1.03,3.433s1.661,1.299,2.922,1.299c1.954,0,3.438-1.169,4.453-3.507   L364.142,328.196z M361.247,321.888c0-3.192-1.237-4.788-3.711-4.788c-2.561,0-4.206,1.596-4.936,4.788H361.247z"/>
    <path fill="#FFFFFF" d="M382.789,333.521h-4.156l1.93-11.337c0.136-0.854,0.204-1.583,0.204-2.19c0-0.692-0.195-1.277-0.584-1.753   c-0.39-0.476-0.98-0.714-1.772-0.714c-1.262,0-2.375,0.64-3.34,1.92s-1.646,3.14-2.041,5.576l-1.429,8.498h-4.156l3.154-18.871   h3.859l-0.742,4.397c1.175-2.202,2.264-3.572,3.266-4.11s1.979-0.807,2.932-0.807c1.373,0,2.563,0.467,3.572,1.401   c1.008,0.934,1.512,2.236,1.512,3.906c0,0.656-0.124,1.702-0.371,3.136L382.789,333.521z"/>
    <path fill="#FFFFFF" d="M396.278,334.004c-1.398,0-2.75-0.31-4.054-0.928c-1.305-0.618-2.301-1.599-2.987-2.941   c-0.687-1.342-1.03-2.94-1.03-4.796c0-3.006,0.884-5.607,2.653-7.803c1.769-2.195,4.082-3.293,6.939-3.293   c2.35,0,4.23,0.789,5.641,2.366s2.115,3.696,2.115,6.355c0,2.733-0.841,5.257-2.523,7.57   C401.35,332.848,399.099,334.004,396.278,334.004z M396.315,330.608c1.682,0,2.919-0.869,3.711-2.607   c0.792-1.737,1.188-3.559,1.188-5.464c0-3.266-1.262-4.899-3.785-4.899c-1.769,0-3.037,0.934-3.804,2.802   c-0.767,1.868-1.15,3.729-1.15,5.585c0,1.571,0.371,2.728,1.113,3.47S395.239,330.608,396.315,330.608z"/>
    <path fill="#FFFFFF" d="M415.724,333.521h-3.878l-4.008-18.871h4.546l2.505,13.211l6.142-13.211h3.674L415.724,333.521z"/>
    <path fill="#FFFFFF" d="M439.826,333.521h-4.101c-0.025-0.334-0.037-0.606-0.037-0.816c0-0.903,0.111-1.985,0.334-3.247   c-0.619,1.41-1.509,2.521-2.672,3.33c-1.163,0.811-2.443,1.216-3.841,1.216c-1.683,0-3.052-0.522-4.11-1.568   c-1.058-1.045-1.586-2.334-1.586-3.868c0-2.115,0.943-3.798,2.83-5.047c1.886-1.249,4.839-1.874,8.86-1.874   c0.52,0,1.125,0.024,1.818,0.074c0.086-0.569,0.13-1.021,0.13-1.354c0-1.015-0.35-1.782-1.048-2.301   c-0.699-0.52-1.568-0.779-2.607-0.779c-1.992,0-3.445,0.872-4.36,2.616l-3.711-1.169c1.559-3.067,4.311-4.602,8.257-4.602   c2.35,0,4.206,0.532,5.566,1.596c1.36,1.064,2.041,2.48,2.041,4.249c0,0.755-0.297,2.747-0.891,5.975   c-0.631,3.401-0.946,5.561-0.946,6.476C439.752,332.761,439.776,333.126,439.826,333.521z M436.95,323.892   c-3.229,0.173-5.474,0.6-6.735,1.28s-1.893,1.676-1.893,2.987c0,0.755,0.253,1.37,0.761,1.846c0.507,0.477,1.2,0.715,2.078,0.715   c1.262,0,2.431-0.554,3.507-1.661C435.744,327.952,436.505,326.229,436.95,323.892z"/>
    <path fill="#FFFFFF" d="M448.677,333.521h-4.156l3.154-18.871h3.822l-0.854,5.14c1.62-3.772,3.797-5.659,6.531-5.659   c0.111,0,0.278,0.006,0.501,0.019l-0.538,4.639c-0.408-0.024-0.718-0.037-0.928-0.037c-1.027,0-1.995,0.272-2.904,0.816   c-0.909,0.544-1.621,1.278-2.134,2.199c-0.514,0.922-0.943,2.435-1.29,4.537L448.677,333.521z"/>
    <path fill="#FFFFFF" d="M483.727,328.196c-1.732,3.859-4.478,5.789-8.238,5.789c-2.474,0-4.419-0.761-5.835-2.282   c-1.417-1.521-2.125-3.544-2.125-6.067c0-3.216,0.894-5.932,2.681-8.146c1.787-2.214,4.085-3.321,6.893-3.321   c2.523,0,4.431,0.798,5.724,2.394c1.292,1.596,1.939,3.773,1.939,6.532c0,0.458-0.019,0.952-0.056,1.484h-12.97   c-0.087,0.532-0.13,1.002-0.13,1.41c0,1.423,0.343,2.566,1.03,3.433s1.661,1.299,2.922,1.299c1.954,0,3.438-1.169,4.453-3.507   L483.727,328.196z M480.832,321.888c0-3.192-1.237-4.788-3.711-4.788c-2.561,0-4.206,1.596-4.936,4.788H480.832z"/>
    <path fill="#FFFFFF" d="M491.39,333.521h-4.36l4.23-25.328h4.36L491.39,333.521z"/>
    <path fill="#FFFFFF" d="M521.615,333.521h-4.101c-0.025-0.334-0.037-0.606-0.037-0.816c0-0.903,0.111-1.985,0.334-3.247   c-0.619,1.41-1.509,2.521-2.672,3.33c-1.163,0.811-2.443,1.216-3.841,1.216c-1.683,0-3.052-0.522-4.11-1.568   c-1.058-1.045-1.586-2.334-1.586-3.868c0-2.115,0.943-3.798,2.83-5.047c1.886-1.249,4.839-1.874,8.86-1.874   c0.52,0,1.125,0.024,1.818,0.074c0.086-0.569,0.13-1.021,0.13-1.354c0-1.015-0.35-1.782-1.048-2.301   c-0.699-0.52-1.568-0.779-2.607-0.779c-1.992,0-3.445,0.872-4.36,2.616l-3.711-1.169c1.559-3.067,4.311-4.602,8.257-4.602   c2.35,0,4.206,0.532,5.566,1.596c1.36,1.064,2.041,2.48,2.041,4.249c0,0.755-0.297,2.747-0.891,5.975   c-0.631,3.401-0.946,5.561-0.946,6.476C521.541,332.761,521.565,333.126,521.615,333.521z M518.739,323.892   c-3.229,0.173-5.474,0.6-6.735,1.28s-1.893,1.676-1.893,2.987c0,0.755,0.253,1.37,0.761,1.846c0.507,0.477,1.2,0.715,2.078,0.715   c1.262,0,2.431-0.554,3.507-1.661C517.533,327.952,518.294,326.229,518.739,323.892z"/>
    <path fill="#FFFFFF" d="M530.67,333.521h-4.36l3.154-18.871h4.36L530.67,333.521z M534.195,312.461h-4.36l0.761-4.527h4.36   L534.195,312.461z"/>
    <path fill="#FFFFFF" d="M539.892,333.521h-4.156l3.154-18.871h3.822l-0.854,5.14c1.62-3.772,3.797-5.659,6.531-5.659   c0.111,0,0.278,0.006,0.501,0.019l-0.538,4.639c-0.408-0.024-0.718-0.037-0.928-0.037c-1.027,0-1.995,0.272-2.904,0.816   c-0.909,0.544-1.621,1.278-2.134,2.199c-0.514,0.922-0.943,2.435-1.29,4.537L539.892,333.521z"/>
    <path fill="#FFFFFF" d="M565.441,328.196c-1.732,3.859-4.478,5.789-8.238,5.789c-2.474,0-4.419-0.761-5.835-2.282   c-1.417-1.521-2.125-3.544-2.125-6.067c0-3.216,0.894-5.932,2.681-8.146c1.787-2.214,4.085-3.321,6.893-3.321   c2.523,0,4.431,0.798,5.724,2.394c1.292,1.596,1.939,3.773,1.939,6.532c0,0.458-0.019,0.952-0.056,1.484h-12.97   c-0.087,0.532-0.13,1.002-0.13,1.41c0,1.423,0.343,2.566,1.03,3.433s1.661,1.299,2.922,1.299c1.954,0,3.438-1.169,4.453-3.507   L565.441,328.196z M562.547,321.888c0-3.192-1.237-4.788-3.711-4.788c-2.561,0-4.206,1.596-4.936,4.788H562.547z"/>
    <path fill="#FFFFFF" d="M593.496,333.521h-4.045l0.649-3.896c-1.521,2.882-3.514,4.323-5.975,4.323   c-1.695,0-3.059-0.678-4.092-2.032s-1.549-3.256-1.549-5.705c0-3.34,0.785-6.207,2.356-8.601c1.57-2.394,3.568-3.59,5.993-3.59   c2.598,0,4.311,1.25,5.14,3.748l1.614-9.574h4.156L593.496,333.521z M585.814,330.553c1.607,0,2.888-0.9,3.841-2.7   c0.952-1.8,1.429-3.77,1.429-5.909c0-1.323-0.319-2.394-0.956-3.21s-1.481-1.225-2.532-1.225c-1.608,0-2.82,0.931-3.637,2.792   c-0.816,1.862-1.225,3.931-1.225,6.207C582.734,329.204,583.761,330.553,585.814,330.553z"/>
    <path fill="#FFFFFF" d="M615.094,328.196c-1.732,3.859-4.479,5.789-8.238,5.789c-2.475,0-4.42-0.761-5.836-2.282   s-2.124-3.544-2.124-6.067c0-3.216,0.894-5.932,2.681-8.146c1.787-2.214,4.085-3.321,6.894-3.321c2.523,0,4.431,0.798,5.724,2.394   s1.939,3.773,1.939,6.532c0,0.458-0.019,0.952-0.056,1.484h-12.97c-0.087,0.532-0.13,1.002-0.13,1.41   c0,1.423,0.343,2.566,1.029,3.433s1.661,1.299,2.923,1.299c1.954,0,3.438-1.169,4.453-3.507L615.094,328.196z M612.199,321.888   c0-3.192-1.237-4.788-3.711-4.788c-2.561,0-4.206,1.596-4.936,4.788H612.199z"/>
    <path fill="#FFFFFF" d="M642.926,333.521h-3.859l0.687-4.119c-1.596,2.981-3.729,4.472-6.401,4.472   c-1.484,0-2.623-0.477-3.414-1.429c-0.792-0.952-1.188-2.01-1.188-3.173c0-0.606,0.16-1.855,0.482-3.748l1.818-10.874h4.156   l-1.967,11.708c-0.174,1.076-0.26,1.738-0.26,1.985c0,0.606,0.191,1.089,0.575,1.447c0.383,0.358,0.884,0.538,1.503,0.538   c0.854,0,1.726-0.353,2.616-1.058s1.521-1.531,1.893-2.478s0.711-2.334,1.021-4.165l1.336-7.979h4.156L642.926,333.521z"/>
    <path fill="#FFFFFF" d="M663.336,333.521h-4.156l1.93-11.337c0.136-0.854,0.204-1.583,0.204-2.19c0-0.692-0.195-1.277-0.585-1.753   c-0.39-0.476-0.98-0.714-1.771-0.714c-1.262,0-2.375,0.64-3.34,1.92s-1.646,3.14-2.041,5.576l-1.429,8.498h-4.156l3.154-18.871   h3.859l-0.742,4.397c1.175-2.202,2.264-3.572,3.266-4.11s1.979-0.807,2.932-0.807c1.373,0,2.563,0.467,3.571,1.401   c1.008,0.934,1.513,2.236,1.513,3.906c0,0.656-0.124,1.702-0.371,3.136L663.336,333.521z"/>
    <path fill="#FFFFFF" d="M694.415,328.196c-1.732,3.859-4.479,5.789-8.238,5.789c-2.475,0-4.42-0.761-5.836-2.282   s-2.124-3.544-2.124-6.067c0-3.216,0.894-5.932,2.681-8.146c1.787-2.214,4.085-3.321,6.894-3.321c2.523,0,4.431,0.798,5.724,2.394   s1.939,3.773,1.939,6.532c0,0.458-0.019,0.952-0.056,1.484h-12.97c-0.087,0.532-0.13,1.002-0.13,1.41   c0,1.423,0.343,2.566,1.029,3.433s1.661,1.299,2.923,1.299c1.954,0,3.438-1.169,4.453-3.507L694.415,328.196z M691.521,321.888   c0-3.192-1.237-4.788-3.711-4.788c-2.561,0-4.206,1.596-4.936,4.788H691.521z"/>
    <path fill="#FFFFFF" d="M700.037,327.974c0.729,1.88,2.22,2.82,4.472,2.82c1.125,0,2.013-0.232,2.662-0.696   s0.975-1.054,0.975-1.771c0-0.532-0.22-0.952-0.659-1.262s-1.185-0.612-2.235-0.909c-1.695-0.47-2.95-0.903-3.767-1.299   s-1.503-1.002-2.06-1.818s-0.835-1.75-0.835-2.802c0-1.646,0.624-3.077,1.874-4.296c1.249-1.218,3.012-1.828,5.288-1.828   c3.698,0,6.296,1.484,7.793,4.453l-3.581,1.15c-0.829-1.645-2.196-2.468-4.101-2.468c-0.854,0-1.577,0.198-2.171,0.594   c-0.594,0.396-0.891,0.928-0.891,1.596c0,0.47,0.145,0.86,0.436,1.169s0.875,0.588,1.754,0.835c2.004,0.594,3.491,1.11,4.462,1.549   c0.971,0.439,1.738,1.064,2.301,1.874c0.563,0.811,0.845,1.741,0.845,2.793c0,1.781-0.684,3.271-2.051,4.472s-3.393,1.8-6.076,1.8   c-4.293,0-7.095-1.664-8.405-4.991L700.037,327.974z"/>
    <path fill="#FFFFFF" d="M718.165,340.108h-4.156l4.268-25.458h3.711l-0.649,3.896c1.559-3.018,3.513-4.527,5.863-4.527   c1.769,0,3.203,0.718,4.305,2.152c1.101,1.435,1.651,3.371,1.651,5.808c0,3.03-0.746,5.802-2.236,8.313s-3.436,3.767-5.835,3.767   c-2.586,0-4.342-1.293-5.27-3.878L718.165,340.108z M724.307,330.664c1.447,0,2.563-0.912,3.349-2.737   c0.785-1.824,1.179-3.701,1.179-5.631c0-3.253-0.99-4.88-2.969-4.88c-1.497,0-2.75,0.888-3.758,2.663   c-1.008,1.775-1.512,3.733-1.512,5.873c0,1.571,0.361,2.749,1.085,3.534C722.404,330.271,723.279,330.664,724.307,330.664z"/>
    <path fill="#FFFFFF" d="M750.858,333.521h-4.101c-0.025-0.334-0.037-0.606-0.037-0.816c0-0.903,0.111-1.985,0.334-3.247   c-0.619,1.41-1.51,2.521-2.672,3.33c-1.163,0.811-2.443,1.216-3.841,1.216c-1.683,0-3.053-0.522-4.11-1.568   c-1.058-1.045-1.586-2.334-1.586-3.868c0-2.115,0.942-3.798,2.829-5.047s4.84-1.874,8.86-1.874c0.52,0,1.125,0.024,1.818,0.074   c0.086-0.569,0.13-1.021,0.13-1.354c0-1.015-0.35-1.782-1.049-2.301s-1.567-0.779-2.606-0.779c-1.992,0-3.445,0.872-4.36,2.616   l-3.711-1.169c1.559-3.067,4.311-4.602,8.257-4.602c2.35,0,4.205,0.532,5.566,1.596c1.36,1.064,2.041,2.48,2.041,4.249   c0,0.755-0.297,2.747-0.891,5.975c-0.631,3.401-0.946,5.561-0.946,6.476C750.784,332.761,750.809,333.126,750.858,333.521z    M747.982,323.892c-3.229,0.173-5.474,0.6-6.735,1.28s-1.893,1.676-1.893,2.987c0,0.755,0.253,1.37,0.761,1.846   c0.507,0.477,1.199,0.715,2.078,0.715c1.262,0,2.431-0.554,3.507-1.661C746.776,327.952,747.537,326.229,747.982,323.892z"/>
    <path fill="#FFFFFF" d="M771.436,327.918c-1.781,4.008-4.453,6.012-8.016,6.012c-2.215,0-4.021-0.745-5.418-2.236   c-1.398-1.49-2.097-3.584-2.097-6.28c0-3.043,0.859-5.69,2.579-7.942c1.719-2.251,3.878-3.377,6.476-3.377   c1.967,0,3.608,0.572,4.926,1.716c1.317,1.145,2.144,2.768,2.478,4.871l-3.525,0.687c-0.495-2.474-1.726-3.711-3.692-3.711   c-1.46,0-2.647,0.829-3.563,2.487c-0.916,1.657-1.373,3.568-1.373,5.733c0,1.646,0.346,2.811,1.039,3.497   c0.692,0.687,1.515,1.03,2.468,1.03c1.855,0,3.266-1.243,4.23-3.729L771.436,327.918z"/>
    <path fill="#FFFFFF" d="M778.078,333.521h-4.36l3.154-18.871h4.36L778.078,333.521z M781.604,312.461h-4.36l0.761-4.527h4.36   L781.604,312.461z"/>
    <path fill="#FFFFFF" d="M791.567,334.004c-1.398,0-2.75-0.31-4.055-0.928s-2.301-1.599-2.987-2.941   c-0.687-1.342-1.029-2.94-1.029-4.796c0-3.006,0.884-5.607,2.653-7.803c1.769-2.195,4.082-3.293,6.939-3.293   c2.35,0,4.23,0.789,5.641,2.366s2.115,3.696,2.115,6.355c0,2.733-0.842,5.257-2.523,7.57   C796.639,332.848,794.388,334.004,791.567,334.004z M791.604,330.608c1.682,0,2.919-0.869,3.711-2.607   c0.791-1.737,1.188-3.559,1.188-5.464c0-3.266-1.262-4.899-3.785-4.899c-1.77,0-3.037,0.934-3.804,2.802   c-0.768,1.868-1.15,3.729-1.15,5.585c0,1.571,0.371,2.728,1.113,3.47S790.528,330.608,791.604,330.608z"/>
    <path fill="#FFFFFF" d="M803.461,338.995h-1.614l3.154-5.474h-2.097l0.779-4.62h4.435l-0.705,4.249L803.461,338.995z    M809.324,321.684h-4.435l0.779-4.621h4.435L809.324,321.684z"/>
    <path fill="#FFFFFF" d="M389.803,370.196c-1.732,3.859-4.478,5.789-8.238,5.789c-2.474,0-4.419-0.761-5.835-2.282   c-1.417-1.521-2.125-3.544-2.125-6.067c0-3.216,0.894-5.932,2.681-8.146c1.787-2.214,4.085-3.321,6.893-3.321   c2.523,0,4.431,0.798,5.724,2.394c1.292,1.596,1.939,3.772,1.939,6.531c0,0.458-0.019,0.952-0.056,1.484h-12.97   c-0.087,0.532-0.13,1.002-0.13,1.41c0,1.423,0.343,2.566,1.03,3.433s1.661,1.299,2.922,1.299c1.954,0,3.438-1.169,4.453-3.507   L389.803,370.196z M386.908,363.888c0-3.191-1.237-4.787-3.711-4.787c-2.561,0-4.206,1.596-4.936,4.787H386.908z"/>
    <path fill="#FFFFFF" d="M395.425,369.974c0.729,1.88,2.22,2.82,4.472,2.82c1.125,0,2.013-0.232,2.663-0.696   s0.974-1.054,0.974-1.771c0-0.532-0.22-0.952-0.659-1.262c-0.439-0.31-1.185-0.612-2.236-0.909c-1.695-0.47-2.95-0.903-3.767-1.299   s-1.503-1.002-2.06-1.818s-0.835-1.75-0.835-2.802c0-1.646,0.625-3.077,1.874-4.296c1.249-1.218,3.012-1.827,5.288-1.827   c3.698,0,6.296,1.484,7.793,4.453l-3.581,1.15c-0.829-1.646-2.196-2.468-4.101-2.468c-0.854,0-1.577,0.198-2.171,0.594   s-0.891,0.928-0.891,1.596c0,0.47,0.145,0.859,0.436,1.169c0.291,0.31,0.875,0.588,1.753,0.835c2.004,0.594,3.491,1.11,4.462,1.549   c0.971,0.439,1.738,1.064,2.301,1.874c0.563,0.811,0.844,1.741,0.844,2.793c0,1.781-0.684,3.271-2.05,4.472   c-1.367,1.2-3.393,1.8-6.077,1.8c-4.292,0-7.094-1.664-8.405-4.991L395.425,369.974z"/>
    <path fill="#FFFFFF" d="M435.262,375.521h-4.045l0.649-3.896c-1.521,2.882-3.513,4.323-5.975,4.323   c-1.695,0-3.059-0.678-4.091-2.032c-1.033-1.354-1.549-3.256-1.549-5.705c0-3.34,0.785-6.207,2.356-8.601   c1.571-2.394,3.568-3.59,5.993-3.59c2.598,0,4.311,1.249,5.14,3.748l1.614-9.574h4.156L435.262,375.521z M427.58,372.553   c1.608,0,2.888-0.9,3.841-2.7c0.952-1.8,1.429-3.77,1.429-5.909c0-1.323-0.319-2.394-0.956-3.21   c-0.637-0.816-1.481-1.225-2.533-1.225c-1.608,0-2.82,0.931-3.637,2.792c-0.816,1.862-1.225,3.931-1.225,6.207   C424.5,371.204,425.526,372.553,427.58,372.553z"/>
    <path fill="#FFFFFF" d="M456.859,370.196c-1.732,3.859-4.478,5.789-8.238,5.789c-2.474,0-4.419-0.761-5.835-2.282   c-1.417-1.521-2.125-3.544-2.125-6.067c0-3.216,0.894-5.932,2.681-8.146c1.787-2.214,4.085-3.321,6.893-3.321   c2.523,0,4.431,0.798,5.724,2.394c1.292,1.596,1.939,3.772,1.939,6.531c0,0.458-0.019,0.952-0.056,1.484h-12.97   c-0.087,0.532-0.13,1.002-0.13,1.41c0,1.423,0.343,2.566,1.03,3.433s1.661,1.299,2.922,1.299c1.954,0,3.438-1.169,4.453-3.507   L456.859,370.196z M453.965,363.888c0-3.191-1.237-4.787-3.711-4.787c-2.561,0-4.206,1.596-4.936,4.787H453.965z"/>
    <path fill="#FFFFFF" d="M476.045,369.918c-1.781,4.008-4.453,6.012-8.016,6.012c-2.214,0-4.021-0.745-5.418-2.236   c-1.398-1.49-2.097-3.584-2.097-6.28c0-3.043,0.859-5.69,2.579-7.941c1.719-2.251,3.878-3.377,6.476-3.377   c1.967,0,3.609,0.572,4.926,1.716c1.317,1.145,2.143,2.769,2.477,4.871l-3.525,0.687c-0.495-2.474-1.726-3.711-3.692-3.711   c-1.46,0-2.647,0.829-3.563,2.486c-0.916,1.657-1.373,3.568-1.373,5.733c0,1.646,0.346,2.811,1.039,3.497   c0.692,0.687,1.515,1.03,2.468,1.03c1.855,0,3.266-1.243,4.23-3.729L476.045,369.918z"/>
    <path fill="#FFFFFF" d="M482.688,375.521h-4.36l3.154-18.87h4.36L482.688,375.521z M486.213,354.462h-4.36l0.761-4.527h4.36   L486.213,354.462z"/>
    <path fill="#FFFFFF" d="M491.909,375.521h-4.156l3.154-18.87h3.822l-0.854,5.14c1.62-3.772,3.797-5.659,6.531-5.659   c0.111,0,0.278,0.006,0.501,0.019l-0.538,4.639c-0.408-0.024-0.718-0.037-0.928-0.037c-1.027,0-1.995,0.272-2.904,0.816   s-1.621,1.277-2.134,2.198c-0.514,0.922-0.943,2.435-1.29,4.537L491.909,375.521z"/>
    <path fill="#FFFFFF" d="M499.424,380.995h-1.614l3.154-5.474h-2.097l0.779-4.62h4.435l-0.705,4.249L499.424,380.995z"/>
    <path fill="#FFFFFF" d="M533.583,369.918c-1.781,4.008-4.453,6.012-8.016,6.012c-2.214,0-4.021-0.745-5.418-2.236   c-1.398-1.49-2.097-3.584-2.097-6.28c0-3.043,0.859-5.69,2.579-7.941c1.719-2.251,3.878-3.377,6.476-3.377   c1.967,0,3.609,0.572,4.926,1.716c1.317,1.145,2.143,2.769,2.477,4.871l-3.525,0.687c-0.495-2.474-1.726-3.711-3.692-3.711   c-1.46,0-2.647,0.829-3.563,2.486c-0.916,1.657-1.373,3.568-1.373,5.733c0,1.646,0.346,2.811,1.039,3.497   c0.692,0.687,1.515,1.03,2.468,1.03c1.855,0,3.266-1.243,4.23-3.729L533.583,369.918z"/>
    <path fill="#FFFFFF" d="M551.525,375.521h-4.101c-0.025-0.334-0.037-0.606-0.037-0.816c0-0.903,0.111-1.985,0.334-3.247   c-0.619,1.41-1.509,2.521-2.672,3.33c-1.163,0.811-2.443,1.216-3.841,1.216c-1.683,0-3.052-0.522-4.11-1.568   c-1.058-1.045-1.586-2.334-1.586-3.868c0-2.115,0.943-3.798,2.83-5.047c1.886-1.249,4.839-1.874,8.86-1.874   c0.52,0,1.125,0.024,1.818,0.074c0.086-0.569,0.13-1.021,0.13-1.354c0-1.015-0.35-1.781-1.048-2.301   c-0.699-0.52-1.568-0.779-2.607-0.779c-1.992,0-3.445,0.872-4.36,2.616l-3.711-1.169c1.559-3.067,4.311-4.602,8.257-4.602   c2.35,0,4.206,0.532,5.566,1.596c1.36,1.063,2.041,2.48,2.041,4.249c0,0.755-0.297,2.746-0.891,5.975   c-0.631,3.401-0.946,5.561-0.946,6.476C551.451,374.761,551.476,375.126,551.525,375.521z M548.649,365.892   c-3.229,0.173-5.474,0.6-6.735,1.28s-1.893,1.676-1.893,2.987c0,0.755,0.253,1.37,0.761,1.846c0.507,0.477,1.2,0.715,2.078,0.715   c1.262,0,2.431-0.554,3.507-1.661C547.443,369.952,548.204,368.229,548.649,365.892z"/>
    <path fill="#FFFFFF" d="M583.551,375.521h-4.36l1.911-11.411c0.16-0.928,0.241-1.583,0.241-1.967c0-1.67-0.885-2.505-2.653-2.505   c-2.759,0-4.571,2.536-5.437,7.607l-1.41,8.275h-4.138l1.837-10.984c0.21-1.262,0.315-2.134,0.315-2.616   c0-1.559-0.773-2.338-2.319-2.338c-1.225,0-2.366,0.584-3.423,1.753s-1.915,3.727-2.57,7.673l-1.095,6.513h-4.23l3.154-18.87h4.156   l-0.705,4.212c0.557-1.46,1.397-2.626,2.523-3.498c1.125-0.872,2.319-1.308,3.581-1.308c2.895,0,4.539,1.484,4.936,4.453   c1.806-2.969,4.032-4.453,6.68-4.453c1.496,0,2.742,0.47,3.738,1.41s1.494,2.158,1.494,3.655c0,0.742-0.143,1.973-0.427,3.692   L583.551,375.521z"/>
    <path fill="#FFFFFF" d="M590.527,375.521h-1.911l4.23-25.327h4.156l-1.614,9.686c1.607-2.647,3.519-3.971,5.733-3.971   c1.694,0,3.046,0.711,4.054,2.134s1.513,3.26,1.513,5.511c0,2.932-0.783,5.718-2.348,8.358c-1.564,2.642-3.727,3.962-6.484,3.962   c-2.586,0-4.435-1.188-5.548-3.563L590.527,375.521z M597.634,372.367c1.521,0,2.709-0.952,3.563-2.857s1.28-3.847,1.28-5.826   c0-2.845-0.996-4.268-2.987-4.268c-1.559,0-2.843,0.971-3.851,2.913s-1.512,3.977-1.512,6.104c0,1.225,0.358,2.187,1.076,2.885   C595.92,372.018,596.73,372.367,597.634,372.367z"/>
    <path fill="#FFFFFF" d="M613.108,375.521h-4.36l3.154-18.87h4.36L613.108,375.521z M616.634,354.462h-4.36l0.761-4.527h4.36   L616.634,354.462z"/>
    <path fill="#FFFFFF" d="M633.834,375.521h-4.101c-0.025-0.334-0.037-0.606-0.037-0.816c0-0.903,0.111-1.985,0.334-3.247   c-0.619,1.41-1.51,2.521-2.672,3.33c-1.163,0.811-2.443,1.216-3.841,1.216c-1.683,0-3.053-0.522-4.11-1.568   c-1.058-1.045-1.586-2.334-1.586-3.868c0-2.115,0.942-3.798,2.829-5.047s4.84-1.874,8.86-1.874c0.52,0,1.125,0.024,1.818,0.074   c0.086-0.569,0.13-1.021,0.13-1.354c0-1.015-0.35-1.781-1.049-2.301s-1.567-0.779-2.606-0.779c-1.992,0-3.445,0.872-4.36,2.616   l-3.711-1.169c1.559-3.067,4.311-4.602,8.257-4.602c2.35,0,4.205,0.532,5.566,1.596c1.36,1.063,2.041,2.48,2.041,4.249   c0,0.755-0.297,2.746-0.891,5.975c-0.631,3.401-0.946,5.561-0.946,6.476C633.76,374.761,633.784,375.126,633.834,375.521z    M630.958,365.892c-3.229,0.173-5.474,0.6-6.735,1.28s-1.893,1.676-1.893,2.987c0,0.755,0.253,1.37,0.761,1.846   c0.507,0.477,1.199,0.715,2.078,0.715c1.262,0,2.431-0.554,3.507-1.661C629.752,369.952,630.513,368.229,630.958,365.892z"/>
    <path fill="#FFFFFF" d="M642.685,375.521h-4.156l3.154-18.87h3.822l-0.854,5.14c1.62-3.772,3.797-5.659,6.531-5.659   c0.111,0,0.278,0.006,0.501,0.019l-0.538,4.639c-0.408-0.024-0.718-0.037-0.928-0.037c-1.027,0-1.995,0.272-2.904,0.816   s-1.62,1.277-2.134,2.198c-0.514,0.922-0.943,2.435-1.289,4.537L642.685,375.521z"/>
    <path fill="#FFFFFF" d="M677.734,370.196c-1.732,3.859-4.479,5.789-8.238,5.789c-2.475,0-4.42-0.761-5.836-2.282   s-2.124-3.544-2.124-6.067c0-3.216,0.894-5.932,2.681-8.146s4.085-3.321,6.894-3.321c2.523,0,4.431,0.798,5.724,2.394   s1.939,3.772,1.939,6.531c0,0.458-0.019,0.952-0.056,1.484h-12.97c-0.087,0.532-0.13,1.002-0.13,1.41   c0,1.423,0.343,2.566,1.029,3.433s1.661,1.299,2.923,1.299c1.954,0,3.438-1.169,4.453-3.507L677.734,370.196z M674.84,363.888   c0-3.191-1.237-4.787-3.711-4.787c-2.561,0-4.206,1.596-4.936,4.787H674.84z"/>
    <path fill="#FFFFFF" d="M685.397,375.521h-4.36l4.23-25.327h4.36L685.397,375.521z"/>
    <path fill="#FFFFFF" d="M715.623,375.521h-4.101c-0.025-0.334-0.037-0.606-0.037-0.816c0-0.903,0.111-1.985,0.334-3.247   c-0.619,1.41-1.51,2.521-2.672,3.33c-1.163,0.811-2.443,1.216-3.841,1.216c-1.683,0-3.053-0.522-4.11-1.568   c-1.058-1.045-1.586-2.334-1.586-3.868c0-2.115,0.942-3.798,2.829-5.047s4.84-1.874,8.86-1.874c0.52,0,1.125,0.024,1.818,0.074   c0.086-0.569,0.13-1.021,0.13-1.354c0-1.015-0.35-1.781-1.049-2.301s-1.567-0.779-2.606-0.779c-1.992,0-3.445,0.872-4.36,2.616   l-3.711-1.169c1.559-3.067,4.311-4.602,8.257-4.602c2.35,0,4.205,0.532,5.566,1.596c1.36,1.063,2.041,2.48,2.041,4.249   c0,0.755-0.297,2.746-0.891,5.975c-0.631,3.401-0.946,5.561-0.946,6.476C715.549,374.761,715.573,375.126,715.623,375.521z    M712.747,365.892c-3.229,0.173-5.474,0.6-6.735,1.28s-1.893,1.676-1.893,2.987c0,0.755,0.253,1.37,0.761,1.846   c0.507,0.477,1.199,0.715,2.078,0.715c1.262,0,2.431-0.554,3.507-1.661C711.541,369.952,712.302,368.229,712.747,365.892z"/>
    <path fill="#FFFFFF" d="M724.678,375.521h-4.36l3.154-18.87h4.36L724.678,375.521z M728.203,354.462h-4.36l0.761-4.527h4.36   L728.203,354.462z"/>
    <path fill="#FFFFFF" d="M733.899,375.521h-4.156l3.154-18.87h3.822l-0.854,5.14c1.62-3.772,3.797-5.659,6.531-5.659   c0.111,0,0.278,0.006,0.501,0.019l-0.538,4.639c-0.408-0.024-0.718-0.037-0.928-0.037c-1.027,0-1.995,0.272-2.904,0.816   s-1.62,1.277-2.134,2.198c-0.514,0.922-0.943,2.435-1.289,4.537L733.899,375.521z"/>
    <path fill="#FFFFFF" d="M759.449,370.196c-1.732,3.859-4.479,5.789-8.238,5.789c-2.475,0-4.42-0.761-5.836-2.282   s-2.124-3.544-2.124-6.067c0-3.216,0.894-5.932,2.681-8.146s4.085-3.321,6.894-3.321c2.523,0,4.431,0.798,5.724,2.394   s1.939,3.772,1.939,6.531c0,0.458-0.019,0.952-0.056,1.484h-12.97c-0.087,0.532-0.13,1.002-0.13,1.41   c0,1.423,0.343,2.566,1.029,3.433s1.661,1.299,2.923,1.299c1.954,0,3.438-1.169,4.453-3.507L759.449,370.196z M756.555,363.888   c0-3.191-1.237-4.787-3.711-4.787c-2.561,0-4.206,1.596-4.936,4.787H756.555z"/>
    <path fill="#FFFFFF" d="M349.836,411.918c-1.781,4.008-4.453,6.012-8.016,6.012c-2.214,0-4.021-0.745-5.418-2.236   c-1.398-1.49-2.097-3.584-2.097-6.28c0-3.043,0.859-5.69,2.579-7.941c1.719-2.251,3.878-3.377,6.476-3.377   c1.967,0,3.609,0.572,4.926,1.716c1.317,1.145,2.143,2.769,2.477,4.871l-3.525,0.687c-0.495-2.474-1.726-3.711-3.692-3.711   c-1.46,0-2.647,0.829-3.563,2.486c-0.916,1.657-1.373,3.568-1.373,5.733c0,1.646,0.346,2.811,1.039,3.497   c0.692,0.687,1.515,1.03,2.468,1.03c1.855,0,3.266-1.243,4.23-3.729L349.836,411.918z"/>
    <path fill="#FFFFFF" d="M360.542,418.004c-1.398,0-2.75-0.31-4.054-0.928c-1.305-0.618-2.301-1.599-2.987-2.941   c-0.687-1.342-1.03-2.94-1.03-4.796c0-3.006,0.884-5.606,2.653-7.803c1.769-2.195,4.082-3.293,6.939-3.293   c2.35,0,4.23,0.788,5.641,2.365s2.115,3.696,2.115,6.355c0,2.733-0.841,5.257-2.523,7.57   C365.613,416.848,363.362,418.004,360.542,418.004z M360.579,414.608c1.682,0,2.919-0.869,3.711-2.607   c0.792-1.737,1.188-3.559,1.188-5.464c0-3.266-1.262-4.898-3.785-4.898c-1.769,0-3.037,0.934-3.804,2.802   c-0.767,1.868-1.15,3.729-1.15,5.585c0,1.571,0.371,2.728,1.113,3.47S359.503,414.608,360.579,414.608z"/>
    <path fill="#FFFFFF" d="M387.409,417.521h-4.156l1.93-11.337c0.136-0.854,0.204-1.583,0.204-2.189c0-0.692-0.195-1.277-0.584-1.754   c-0.39-0.476-0.98-0.714-1.772-0.714c-1.262,0-2.375,0.64-3.34,1.92s-1.646,3.14-2.041,5.576l-1.429,8.498h-4.156l3.154-18.87   h3.859l-0.742,4.397c1.175-2.202,2.264-3.572,3.266-4.11s1.979-0.807,2.932-0.807c1.373,0,2.563,0.467,3.572,1.4   c1.008,0.935,1.512,2.236,1.512,3.906c0,0.655-0.124,1.701-0.371,3.136L387.409,417.521z"/>
    <path fill="#FFFFFF" d="M401.307,417.559c-1.25,0.186-2.134,0.278-2.653,0.278c-1.744,0-3.021-0.393-3.832-1.179   c-0.811-0.785-1.215-1.74-1.215-2.866c0-0.581,0.142-1.713,0.427-3.396l1.429-8.35h-2.802l0.575-3.396h2.839l1.132-5.084   l3.785-0.26l-0.891,5.344h4.063l-0.557,3.396h-4.082l-1.41,8.405c-0.173,1.039-0.26,1.707-0.26,2.004c0,1.2,0.891,1.8,2.672,1.8   c0.371,0,0.822-0.043,1.354-0.13L401.307,417.559z"/>
    <path fill="#FFFFFF" d="M420.325,417.521h-4.101c-0.025-0.334-0.037-0.606-0.037-0.816c0-0.903,0.111-1.985,0.334-3.247   c-0.619,1.41-1.509,2.521-2.672,3.33c-1.163,0.811-2.443,1.216-3.841,1.216c-1.683,0-3.052-0.522-4.11-1.568   c-1.058-1.045-1.586-2.334-1.586-3.868c0-2.115,0.943-3.798,2.83-5.047c1.886-1.249,4.839-1.874,8.86-1.874   c0.52,0,1.125,0.024,1.818,0.074c0.086-0.569,0.13-1.021,0.13-1.354c0-1.015-0.35-1.781-1.048-2.301   c-0.699-0.52-1.568-0.779-2.607-0.779c-1.992,0-3.445,0.872-4.36,2.616l-3.711-1.169c1.559-3.067,4.311-4.602,8.257-4.602   c2.35,0,4.206,0.532,5.566,1.596c1.36,1.063,2.041,2.48,2.041,4.249c0,0.755-0.297,2.746-0.891,5.975   c-0.631,3.401-0.946,5.561-0.946,6.476C420.251,416.761,420.275,417.126,420.325,417.521z M417.449,407.892   c-3.229,0.173-5.474,0.6-6.735,1.28s-1.893,1.676-1.893,2.987c0,0.755,0.253,1.37,0.761,1.846c0.507,0.477,1.2,0.715,2.078,0.715   c1.262,0,2.431-0.554,3.507-1.661C416.243,411.952,417.004,410.229,417.449,407.892z"/>
    <path fill="#FFFFFF" d="M452.351,417.521h-4.36l1.911-11.411c0.161-0.928,0.241-1.583,0.241-1.967c0-1.67-0.885-2.505-2.653-2.505   c-2.759,0-4.571,2.536-5.437,7.607l-1.41,8.275h-4.138l1.837-10.984c0.21-1.262,0.315-2.134,0.315-2.616   c0-1.559-0.773-2.338-2.319-2.338c-1.225,0-2.366,0.584-3.423,1.753s-1.915,3.727-2.57,7.673l-1.095,6.513h-4.23l3.154-18.87h4.156   l-0.705,4.212c0.557-1.46,1.397-2.626,2.523-3.498c1.125-0.872,2.319-1.308,3.581-1.308c2.895,0,4.54,1.484,4.936,4.453   c1.806-2.969,4.032-4.453,6.68-4.453c1.497,0,2.743,0.47,3.739,1.41c0.996,0.94,1.494,2.158,1.494,3.655   c0,0.742-0.143,1.973-0.427,3.692L452.351,417.521z"/>
    <path fill="#FFFFFF" d="M461.776,417.521h-4.36l3.154-18.87h4.36L461.776,417.521z M465.302,396.462h-4.36l0.761-4.527h4.36   L465.302,396.462z"/>
    <path fill="#FFFFFF" d="M482.187,417.521h-4.156l1.93-11.337c0.136-0.854,0.204-1.583,0.204-2.189c0-0.692-0.195-1.277-0.584-1.754   c-0.39-0.476-0.98-0.714-1.772-0.714c-1.262,0-2.375,0.64-3.34,1.92s-1.646,3.14-2.041,5.576l-1.429,8.498h-4.156l3.154-18.87   h3.859l-0.742,4.397c1.175-2.202,2.264-3.572,3.266-4.11s1.979-0.807,2.932-0.807c1.373,0,2.563,0.467,3.572,1.4   c1.008,0.935,1.512,2.236,1.512,3.906c0,0.655-0.124,1.701-0.371,3.136L482.187,417.521z"/>
    <path fill="#FFFFFF" d="M502.912,417.521h-4.101c-0.025-0.334-0.037-0.606-0.037-0.816c0-0.903,0.111-1.985,0.334-3.247   c-0.619,1.41-1.509,2.521-2.672,3.33c-1.163,0.811-2.443,1.216-3.841,1.216c-1.683,0-3.052-0.522-4.11-1.568   c-1.058-1.045-1.586-2.334-1.586-3.868c0-2.115,0.943-3.798,2.83-5.047c1.886-1.249,4.839-1.874,8.86-1.874   c0.52,0,1.125,0.024,1.818,0.074c0.086-0.569,0.13-1.021,0.13-1.354c0-1.015-0.35-1.781-1.048-2.301   c-0.699-0.52-1.568-0.779-2.607-0.779c-1.992,0-3.445,0.872-4.36,2.616l-3.711-1.169c1.559-3.067,4.311-4.602,8.257-4.602   c2.35,0,4.206,0.532,5.566,1.596c1.36,1.063,2.041,2.48,2.041,4.249c0,0.755-0.297,2.746-0.891,5.975   c-0.631,3.401-0.946,5.561-0.946,6.476C502.838,416.761,502.862,417.126,502.912,417.521z M500.036,407.892   c-3.229,0.173-5.474,0.6-6.735,1.28s-1.893,1.676-1.893,2.987c0,0.755,0.253,1.37,0.761,1.846c0.507,0.477,1.2,0.715,2.078,0.715   c1.262,0,2.431-0.554,3.507-1.661C498.83,411.952,499.591,410.229,500.036,407.892z"/>
    <path fill="#FFFFFF" d="M522.858,417.521h-4.045l0.649-3.896c-1.521,2.882-3.513,4.323-5.975,4.323   c-1.695,0-3.059-0.678-4.091-2.032c-1.033-1.354-1.549-3.256-1.549-5.705c0-3.34,0.785-6.207,2.356-8.601   c1.571-2.394,3.568-3.59,5.993-3.59c2.598,0,4.311,1.249,5.14,3.748l1.614-9.574h4.156L522.858,417.521z M515.177,414.553   c1.608,0,2.888-0.9,3.841-2.7c0.952-1.8,1.429-3.77,1.429-5.909c0-1.323-0.319-2.394-0.956-3.21   c-0.637-0.816-1.481-1.225-2.533-1.225c-1.608,0-2.82,0.931-3.637,2.792c-0.816,1.862-1.225,3.931-1.225,6.207   C512.097,413.204,513.123,414.553,515.177,414.553z"/>
    <path fill="#FFFFFF" d="M536.366,418.004c-1.398,0-2.75-0.31-4.054-0.928c-1.305-0.618-2.301-1.599-2.987-2.941   c-0.687-1.342-1.03-2.94-1.03-4.796c0-3.006,0.884-5.606,2.653-7.803c1.769-2.195,4.082-3.293,6.939-3.293   c2.35,0,4.23,0.788,5.641,2.365s2.115,3.696,2.115,6.355c0,2.733-0.841,5.257-2.523,7.57   C541.438,416.848,539.187,418.004,536.366,418.004z M536.403,414.608c1.682,0,2.919-0.869,3.711-2.607   c0.792-1.737,1.188-3.559,1.188-5.464c0-3.266-1.262-4.898-3.785-4.898c-1.769,0-3.037,0.934-3.804,2.802   c-0.767,1.868-1.15,3.729-1.15,5.585c0,1.571,0.371,2.728,1.113,3.47S535.327,414.608,536.403,414.608z"/>
    <path fill="#FFFFFF" d="M560.432,424.108h-4.156l4.268-25.457h3.711l-0.649,3.896c1.559-3.019,3.513-4.527,5.863-4.527   c1.769,0,3.203,0.718,4.305,2.152c1.101,1.435,1.651,3.371,1.651,5.808c0,3.03-0.746,5.802-2.236,8.313s-3.436,3.767-5.835,3.767   c-2.585,0-4.342-1.293-5.27-3.878L560.432,424.108z M566.573,414.664c1.447,0,2.563-0.912,3.349-2.737   c0.785-1.824,1.179-3.701,1.179-5.631c0-3.253-0.99-4.88-2.969-4.88c-1.497,0-2.75,0.888-3.757,2.662   c-1.008,1.775-1.512,3.733-1.512,5.873c0,1.571,0.362,2.749,1.085,3.534C564.671,414.271,565.546,414.664,566.573,414.664z"/>
    <path fill="#FFFFFF" d="M585.889,418.004c-1.398,0-2.75-0.31-4.055-0.928s-2.301-1.599-2.987-2.941   c-0.687-1.342-1.029-2.94-1.029-4.796c0-3.006,0.884-5.606,2.653-7.803c1.769-2.195,4.082-3.293,6.939-3.293   c2.35,0,4.23,0.788,5.641,2.365s2.115,3.696,2.115,6.355c0,2.733-0.842,5.257-2.523,7.57   C590.96,416.848,588.709,418.004,585.889,418.004z M585.926,414.608c1.682,0,2.919-0.869,3.711-2.607   c0.791-1.737,1.188-3.559,1.188-5.464c0-3.266-1.262-4.898-3.785-4.898c-1.77,0-3.037,0.934-3.804,2.802   c-0.768,1.868-1.15,3.729-1.15,5.585c0,1.571,0.371,2.728,1.113,3.47S584.85,414.608,585.926,414.608z"/>
    <path fill="#FFFFFF" d="M601.567,417.521h-4.156l3.154-18.87h3.822l-0.854,5.14c1.62-3.772,3.797-5.659,6.531-5.659   c0.111,0,0.278,0.006,0.501,0.019l-0.538,4.639c-0.408-0.024-0.718-0.037-0.928-0.037c-1.027,0-1.995,0.272-2.904,0.816   s-1.62,1.277-2.134,2.198c-0.514,0.922-0.943,2.435-1.289,4.537L601.567,417.521z"/>
    <path fill="#FFFFFF" d="M635.764,417.521h-4.101c-0.025-0.334-0.037-0.606-0.037-0.816c0-0.903,0.111-1.985,0.334-3.247   c-0.619,1.41-1.51,2.521-2.672,3.33c-1.163,0.811-2.443,1.216-3.841,1.216c-1.683,0-3.053-0.522-4.11-1.568   c-1.058-1.045-1.586-2.334-1.586-3.868c0-2.115,0.942-3.798,2.829-5.047s4.84-1.874,8.86-1.874c0.52,0,1.125,0.024,1.818,0.074   c0.086-0.569,0.13-1.021,0.13-1.354c0-1.015-0.35-1.781-1.049-2.301s-1.567-0.779-2.606-0.779c-1.992,0-3.445,0.872-4.36,2.616   l-3.711-1.169c1.559-3.067,4.311-4.602,8.257-4.602c2.35,0,4.205,0.532,5.566,1.596c1.36,1.063,2.041,2.48,2.041,4.249   c0,0.755-0.297,2.746-0.891,5.975c-0.631,3.401-0.946,5.561-0.946,6.476C635.689,416.761,635.714,417.126,635.764,417.521z    M632.888,407.892c-3.229,0.173-5.474,0.6-6.735,1.28s-1.893,1.676-1.893,2.987c0,0.755,0.253,1.37,0.761,1.846   c0.507,0.477,1.199,0.715,2.078,0.715c1.262,0,2.431-0.554,3.507-1.661C631.682,411.952,632.442,410.229,632.888,407.892z"/>
    <path fill="#FFFFFF" d="M644.818,417.521h-4.36l3.154-18.87h4.36L644.818,417.521z M648.344,396.462h-4.36l0.761-4.527h4.36   L648.344,396.462z"/>
    <path fill="#FFFFFF" d="M654.04,417.521h-4.156l3.154-18.87h3.822l-0.854,5.14c1.62-3.772,3.797-5.659,6.531-5.659   c0.111,0,0.278,0.006,0.501,0.019l-0.538,4.639c-0.408-0.024-0.718-0.037-0.928-0.037c-1.027,0-1.995,0.272-2.904,0.816   s-1.62,1.277-2.134,2.198c-0.514,0.922-0.943,2.435-1.289,4.537L654.04,417.521z"/>
    <path fill="#FFFFFF" d="M679.59,412.196c-1.732,3.859-4.479,5.789-8.238,5.789c-2.475,0-4.42-0.761-5.836-2.282   s-2.124-3.544-2.124-6.067c0-3.216,0.894-5.932,2.681-8.146s4.085-3.321,6.894-3.321c2.523,0,4.431,0.798,5.724,2.394   s1.939,3.772,1.939,6.531c0,0.458-0.019,0.952-0.056,1.484h-12.97c-0.087,0.532-0.13,1.002-0.13,1.41   c0,1.423,0.343,2.566,1.029,3.433s1.661,1.299,2.923,1.299c1.954,0,3.438-1.169,4.453-3.507L679.59,412.196z M676.695,405.888   c0-3.191-1.237-4.787-3.711-4.787c-2.561,0-4.206,1.596-4.936,4.787H676.695z"/>
    <path fill="#FFFFFF" d="M696.753,417.521h-4.36l4.23-25.327h4.36L696.753,417.521z"/>
    <path fill="#FFFFFF" d="M706.179,417.521h-4.36l3.154-18.87h4.36L706.179,417.521z M709.704,396.462h-4.36l0.761-4.527h4.36   L709.704,396.462z"/>
    <path fill="#FFFFFF" d="M738.575,417.521h-4.36l1.911-11.411c0.16-0.928,0.241-1.583,0.241-1.967c0-1.67-0.885-2.505-2.653-2.505   c-2.759,0-4.571,2.536-5.437,7.607l-1.41,8.275h-4.138l1.837-10.984c0.21-1.262,0.315-2.134,0.315-2.616   c0-1.559-0.773-2.338-2.319-2.338c-1.225,0-2.366,0.584-3.424,1.753s-1.914,3.727-2.569,7.673l-1.095,6.513h-4.23l3.154-18.87   h4.156l-0.705,4.212c0.557-1.46,1.397-2.626,2.523-3.498c1.125-0.872,2.319-1.308,3.581-1.308c2.895,0,4.539,1.484,4.936,4.453   c1.806-2.969,4.032-4.453,6.68-4.453c1.496,0,2.742,0.47,3.738,1.41s1.494,2.158,1.494,3.655c0,0.742-0.143,1.973-0.427,3.692   L738.575,417.521z"/>
    <path fill="#FFFFFF" d="M746.535,424.108h-4.156l4.268-25.457h3.711l-0.649,3.896c1.559-3.019,3.513-4.527,5.863-4.527   c1.769,0,3.203,0.718,4.305,2.152c1.101,1.435,1.651,3.371,1.651,5.808c0,3.03-0.746,5.802-2.236,8.313s-3.436,3.767-5.835,3.767   c-2.586,0-4.342-1.293-5.27-3.878L746.535,424.108z M752.677,414.664c1.447,0,2.563-0.912,3.349-2.737   c0.785-1.824,1.179-3.701,1.179-5.631c0-3.253-0.99-4.88-2.969-4.88c-1.497,0-2.75,0.888-3.758,2.662   c-1.008,1.775-1.512,3.733-1.512,5.873c0,1.571,0.361,2.749,1.085,3.534C750.774,414.271,751.649,414.664,752.677,414.664z"/>
    <path fill="#FFFFFF" d="M767.929,417.521h-4.36l3.154-18.87h4.36L767.929,417.521z M771.454,396.462h-4.36l0.761-4.527h4.36   L771.454,396.462z"/>
    <path fill="#FFFFFF" d="M781.418,418.004c-1.398,0-2.75-0.31-4.055-0.928s-2.301-1.599-2.987-2.941   c-0.687-1.342-1.029-2.94-1.029-4.796c0-3.006,0.884-5.606,2.653-7.803c1.769-2.195,4.082-3.293,6.939-3.293   c2.35,0,4.23,0.788,5.641,2.365s2.115,3.696,2.115,6.355c0,2.733-0.842,5.257-2.523,7.57   C786.489,416.848,784.238,418.004,781.418,418.004z M781.455,414.608c1.682,0,2.919-0.869,3.711-2.607   c0.791-1.737,1.188-3.559,1.188-5.464c0-3.266-1.262-4.898-3.785-4.898c-1.77,0-3.037,0.934-3.804,2.802   c-0.768,1.868-1.15,3.729-1.15,5.585c0,1.571,0.371,2.728,1.113,3.47S780.379,414.608,781.455,414.608z"/>
    <path fill="#FFFFFF" d="M797.189,417.521h-4.435l0.779-4.639h4.435L797.189,417.521z"/>
</g>
</g>





    </g>
</svg>
